<?xml version='1.0' encoding='ASCII'?>
<!--
  Tweezer Picks brand outlines.

  Derived artwork: the "T" and the "Tweezer Picks" wordmark rendered from Honk
  to vector outlines with COLRv1 colour layers resolved, so no font is needed
  to regenerate the site's icons and social card. This is the same thing as
  converting text to outlines in a drawing program.

  Honk: Copyright 2023 The Honk Project Authors
  (https://github.com/EkType/Honk), licensed under the SIL Open Font License
  1.1 (https://scripts.sil.org/OFL). The font binary itself is deliberately NOT
  vendored into this repository; only this rendered artwork is.

  Layer order is significant and must be preserved: black extrusion, then the
  gradient field (a plain rectangle), then a black path that carves the
  letterform out of that field. Painting them in any other order loses the
  letter.
-->
<svg width="1604" height="222" preserveAspectRatio="xMinYMin slice" viewBox="-25 -55 1604 222" version="1.1" xmlns="http://www.w3.org/2000/svg">
  <defs>
    <linearGradient id="gradient_0" spreadMethod="pad" gradientUnits="userSpaceOnUse" x1="0" y1="0" x2="0" y2="1000">
      <stop offset="0%" stop-color="#000000"/>
      <stop offset="100%" stop-color="#000000"/>
    </linearGradient>
    <linearGradient id="gradient_1" spreadMethod="pad" gradientUnits="userSpaceOnUse" x1="0" y1="0" x2="0" y2="1000">
      <stop offset="0%" stop-color="#FF46AF"/>
      <stop offset="20%" stop-color="#FF3CAF"/>
      <stop offset="40%" stop-color="#FF755F"/>
      <stop offset="60%" stop-color="#FFC753"/>
      <stop offset="80%" stop-color="#FFFF78"/>
      <stop offset="100%" stop-color="#FFFFB2"/>
    </linearGradient>
  </defs>
  <path d="M246,-278 q0,0 0,0 q0,0 0,0 q0,0 0,0 q0,0 0,0 q0,0 0,0 q0,0 0,0 q0,0 0,0 q0,0 0,0 q0,0 0,0 q0,0 0,0 q0,0 0,0 q0,0 0,0 q0,0 0,0 q0,0 0,0 q0,0 0,0 q0,0 0,0 q0,0 0,0 q0,0 0,0 q0,0 0,0 q0,0 0,0 q0,0 0,0 q0,0 0,0 q0,0 0,0 q0,0 0,0 q0,0 0,0 q0,0 0,0 q0,0 0,0 q0,0 0,0 q0,0 -29,0 q-29,0 -71.5,0 q-42.5,0 -85,0 q-42.5,0 -71.5,0 q-29,0 -29,0 q0,0 0,0 q0,0 0,0 q0,0 0,0 q0,0 0,0 q0,0 0,0 q0,0 0,0 q0,0 0,0 q0,0 0,0 q0,0 0,0 q0,0 0,12.5 q0,12.5 0,31.5 q0,19 0,40.5 q0,21.5 0,40.5 q0,19 0,31 q0,12 0,12 q0,0 0,0 q0,0 0,0 v134 q0,0 0,0 q0,0 0,0 q0,0 0,0 q0,0 0,0 q0,0 41,0 q41,0 106,0 q65,0 138,0 q73,0 138,0 q65,0 106,0 q41,0 41,0 q0,0 0,0 q0,0 0,0 q0,0 0,0 q0,0 0,0 q0,0 0,0 q0,0 0,0 q0,0 41,0 q41,0 106,0 q65,0 138,0 q73,0 138,0 q65,0 106,0 q41,0 41,0 q0,0 0,0 q0,0 0,0 q0,0 0,0 q0,0 0,0 q0,0 0,-20 q0,-20 0,-46.5 q0,-26.5 0,-47 q0,-20.5 0,-20.5 q0,0 0,0 q0,0 0,0 q0,0 -23,-9 q-23,-9 -61,-24 q-38,-15 -83.5,-33 q-45.5,-18 -91,-36 q-45.5,-18 -83.5,-33 q-38,-15 -61.5,-24 q-23.5,-9 -23.5,-9 q0,0 0,0 q0,0 0,0 q0,0 0,0 q0,0 0,0 q0,0 0,0 q0,0 0,0 q0,0 -23,0 q-23,0 -61,0 q-38,0 -83.5,0 q-45.5,0 -91,0 q-45.5,0 -83.5,0 q-38,0 -61.5,0 q-23.5,0 -23.5,0 q0,0 0,0 q0,0 0,0 q0,0 0,0 q0,0 0,0 q0,0 0,0 q0,0 0,0 q0,0 0,0 q0,0 0,0 q0,0 0,0 Z M246,-278 q0,0 0,0 q0,0 0,0 q0,0 0,0 q0,0 0,0 q0,0 0,0 q0,0 0,0 q0,0 0,0 q0,0 0,0 q0,0 0,0 q0,0 0,0 q0,0 0,0 q0,0 0,0 q0,0 0,0 q0,0 0,0 q0,0 0,0 q0,0 0,0 q0,0 0,0 q0,0 0,0 q0,0 0,0 q0,0 0,0 q0,0 0,0 q0,0 0,0 q0,0 0,0 q0,0 0,0 q0,0 0,0 q0,0 0,0 q0,0 0,0 q0,0 0,0 q0,0 -29,0 q-29,0 -71.5,0 q-42.5,0 -85,0 q-42.5,0 -71.5,0 q-29,0 -29,0 q0,0 0,0 q0,0 0,0 q0,0 0,0 q0,0 0,0 q0,0 0,0 q0,0 0,0 q0,0 0,0 q0,0 0,0 q0,0 0,0 q0,0 0,12.5 q0,12.5 0,31.5 q0,19 0,40.5 q0,21.5 0,40.5 q0,19 0,31 q0,12 0,12 q0,0 0,0 q0,0 0,0 v134 q0,0 0,0 q0,0 0,0 q0,0 0,0 q0,0 0,0 q0,0 41,0 q41,0 106,0 q65,0 138,0 q73,0 138,0 q65,0 106,0 q41,0 41,0 q0,0 0,0 q0,0 0,0 q0,0 0,0 q0,0 0,0 q0,0 0,0 q0,0 0,0 q0,0 41,0 q41,0 106,0 q65,0 138,0 q73,0 138,0 q65,0 106,0 q41,0 41,0 q0,0 0,0 q0,0 0,0 q0,0 0,0 q0,0 0,0 q0,0 0,-20 q0,-20 0,-46.5 q0,-26.5 0,-47 q0,-20.5 0,-20.5 q0,0 0,0 q0,0 0,0 q0,0 -23,-9 q-23,-9 -61,-24 q-38,-15 -83.5,-33 q-45.5,-18 -91,-36 q-45.5,-18 -83.5,-33 q-38,-15 -61.5,-24 q-23.5,-9 -23.5,-9 q0,0 0,0 q0,0 0,0 q0,0 0,0 q0,0 0,0 q0,0 0,0 q0,0 0,0 q0,0 -23,0 q-23,0 -61,0 q-38,0 -83.5,0 q-45.5,0 -91,0 q-45.5,0 -83.5,0 q-38,0 -61.5,0 q-23.5,0 -23.5,0 q0,0 0,0 q0,0 0,0 q0,0 0,0 q0,0 0,0 q0,0 0,0 q0,0 0,0 q0,0 0,0 q0,0 0,0 q0,0 0,0 Z" fill="url(#gradient_0)" transform="matrix(0.125,0,0,-0.125,0,112)"/>
  <path d="M-6,1138 h244 h288 h288 h244 v-1098 h-244 h-284 h-292 h-244 v1098 Z" fill="url(#gradient_1)" transform="matrix(0.125,0,0,-0.125,0,112)"/>
  <path d="M1100,614 h-80 q0,0 0,34.5 q0,34.5 0,89 q0,54.5 0,115.5 q0,61 0,115.5 q0,54.5 0,89 q0,34.5 0,34.5 q0,0 0,0 q0,0 0,0 q0,0 0,0 q0,0 0,0 q0,0 0,0 q0,0 0,0 q0,0 0,0 q0,0 0,0 q0,0 0,0 q0,0 0,0 q0,0 0,0 q0,0 0,0 q0,0 0,0 q0,0 -36.5,0 q-36.5,0 -94,0 q-57.5,0 -121.5,0 q-64,0 -121.5,0 q-57.5,0 -94,0 q-36.5,0 -36.5,0 q0,20 0,40.5 q0,20.5 0,39.5 q0,0 0,0 q0,0 0,0 q0,0 0,0 q0,0 0,0 q0,0 0,0 q0,0 42,0 q42,0 108.5,0 q66.5,0 141.5,0 q75,0 141.5,0 q66.5,0 108.5,0 q42,0 42,0 q0,0 0,0 q0,0 0,0 q0,0 0,0 q0,0 0,0 q0,0 0,-40.5 q0,-40.5 0,-104 q0,-63.5 0,-134.5 q0,-71 0,-134.5 q0,-63.5 0,-104 q0,-40.5 0,-40.5 Z M-40,614 q0,0 0,40.5 q0,40.5 0,104 q0,63.5 0,134.5 q0,71 0,134.5 q0,63.5 0,104 q0,40.5 0,40.5 q0,0 0,0 q0,0 0,0 q0,0 0,0 q0,0 0,0 q0,0 42,0 q42,0 108.5,0 q66.5,0 141.5,0 q75,0 141.5,0 q66.5,0 108.5,0 q42,0 42,0 q0,0 0,0 q0,0 0,0 q0,0 0,0 q0,0 0,0 q0,0 0,0 q0,-19 0,-39.5 q0,-20.5 0,-40.5 q0,0 -36.5,0 q-36.5,0 -94,0 q-57.5,0 -121.5,0 q-64,0 -121.5,0 q-57.5,0 -94,0 q-36.5,0 -36.5,0 q0,0 0,0 q0,0 0,0 q0,0 0,0 q0,0 0,0 q0,0 0,0 q0,0 0,0 q0,0 0,0 q0,0 0,0 q0,0 0,0 q0,0 0,0 q0,0 0,0 q0,0 0,0 q0,0 0,0 q0,0 0,-34.5 q0,-34.5 0,-89 q0,-54.5 0,-115.5 q0,-61 0,-115.5 q0,-54.5 0,-89 q0,-34.5 0,-34.5 h-80 Z M1100,0 q0,0 0,0 q0,0 0,0 q-84,0 -160.5,0 q-76.5,0 -148.5,0 q-72,0 -141.5,0 q-69.5,0 -139.5,0 q0,0 0,0 q0,0 0,0 q0,0 0,0 q0,0 0,0 q0,0 0,0 q0,20 0,40.5 q0,20.5 0,39.5 q0,0 36.5,0 q36.5,0 84.5,0 q48,0 84.5,0 q36.5,0 36.5,0 q0,0 0,0 q0,0 0,0 q0,0 0,0 q0,0 0,0 q0,0 0,0 q0,0 0,0 q0,0 0,0 q0,0 0,0 q0,0 0,0 q0,0 0,0 q0,0 0,0 q0,0 0,0 q-4,58 -8,116 q-4,58 -7.5,116.5 q-3.5,58.5 -7.5,116.5 q-4,58 -7.5,116.5 q-3.5,58.5 -7.5,116.5 q-4,58 -8,116 q0,0 9.5,0 q9.5,0 19,0 q9.5,0 9.5,0 q0,0 0,0 q0,0 0,0 q0,0 9.5,0 q9.5,0 19,0 q9.5,0 9.5,0 q0,0 2,-21.5 q2,-21.5 6,-56.5 q4,-35 8,-77 q4,-42 9,-83 q5,-41 9,-74 q10,0 21.5,0 q11.5,0 24.5,0 q13,0 27,0 q14,0 29,0 q15,0 29,0 q14,0 27,0 q13,0 24.5,0 q11.5,0 21.5,0 q0,40 0,79.5 q0,39.5 0,78.5 q0,39 0,78.5 q0,39.5 0,79.5 h80 v-782 Z M-40,0 v782 h80 q0,-40 0,-79.5 q0,-39.5 0,-78.5 q0,-39 0,-78.5 q0,-39.5 0,-79.5 q10,0 21.5,0 q11.5,0 24.5,0 q13,0 27,0 q14,0 29,0 q15,0 29,0 q14,0 27,0 q13,0 24.5,0 q11.5,0 21.5,0 q4,33 9,74 q5,41 9,83 q4,42 8,77 q4,35 6,56.5 q2,21.5 2,21.5 q0,0 9.5,0 q9.5,0 19,0 q9.5,0 9.5,0 q0,0 0,0 q0,0 0,0 q0,0 9.5,0 q9.5,0 19,0 q9.5,0 9.5,0 q-4,-58 -8,-116 q-4,-58 -7.5,-116.5 q-3.5,-58.5 -7.5,-116.5 q-4,-58 -7.5,-116.5 q-3.5,-58.5 -7.5,-116.5 q-4,-58 -8,-116 q0,0 0,0 q0,0 0,0 q0,0 0,0 q0,0 0,0 q0,0 0,0 q0,0 0,0 q0,0 0,0 q0,0 0,0 q0,0 0,0 q0,0 0,0 q0,0 0,0 q0,0 0,0 q0,0 36.5,0 q36.5,0 84.5,0 q48,0 84.5,0 q36.5,0 36.5,0 q0,-19 0,-39.5 q0,-20.5 0,-40.5 q0,0 0,0 q0,0 0,0 q0,0 0,0 q0,0 0,0 q0,0 0,0 q-70,0 -139.5,0 q-69.5,0 -141.5,0 q-72,0 -148.5,0 q-76.5,0 -160.5,0 q0,0 0,0 q0,0 0,0 Z" fill="url(#gradient_0)" transform="matrix(0.125,0,0,-0.125,0,112)"/>
  <path d="M296,-278 q0,0 0,0 q0,0 0,0 q0,0 0,0 q0,0 0,0 q0,0 0,0 q0,0 0,0 q0,0 0,0 q0,0 0,0 q0,0 0,0 q0,0 0,0 q0,0 0,0 q0,0 0,0 q0,0 0,0 q0,0 0,0 q0,0 0,0 q0,0 0,0 q0,0 0,0 q0,0 0,0 q0,0 0,0 q0,0 0,0 q0,0 0,0 q0,0 0,0 q0,0 0,0 q0,0 0,0 q0,0 0,0 q0,0 0,0 q0,0 0,0 q0,0 0,0 q0,0 0,0 q0,0 0,0 q0,0 -34,0 q-34,0 -84,0 q-50,0 -100,0 q-50,0 -84,0 q-34,0 -34,0 q0,0 0,0 q0,0 0,0 q0,0 0,0 q0,0 0,0 q0,0 0,0 q0,0 0,0 q0,0 0,0 q0,0 0,0 q0,0 0,0 q0,0 0,12.5 q0,12.5 0,31.5 q0,19 0,40.5 q0,21.5 0,40.5 q0,19 0,31 q0,12 0,12 q0,0 0,0 q0,0 0,0 v134 q0,0 0,0 q0,0 0,0 q0,0 0,0 q0,0 0,0 q0,0 32,0 q32,0 85.5,0 q53.5,0 119.5,0 q66,0 134,0 q68,0 129.5,0 q61.5,0 106.5,0 q45,0 63,0 q0,0 0,0 q0,0 0,0 q0,0 0,0 q0,0 0,0 q0,0 0,0 q0,0 0,0 q0,0 0,0 q0,0 0,0 q0,0 0,0 q0,0 0,0 q0,0 0,0 q0,0 0,0 q21,0 77.5,0 q56.5,0 132.5,0 q76,0 156,0 q80,0 149,0 q69,0 112,0 q43,0 43,0 q0,0 0,0 q0,0 0,0 q0,0 0,0 q0,0 0,0 q0,0 0,-20 q0,-20 0,-46.5 q0,-26.5 0,-47 q0,-20.5 0,-20.5 q0,0 0,0 q0,0 0,0 q0,0 -54.5,-9 q-54.5,-9 -144,-24 q-89.5,-15 -196.5,-33 q-107,-18 -214,-36 q-107,-18 -196.5,-33 q-89.5,-15 -144,-24 q-54.5,-9 -54.5,-9 q0,0 0,0 q0,0 0,0 q0,0 0,0 q0,0 0,0 q0,0 0,0 q0,0 0,0 q0,0 0,0 q0,0 0,0 q0,0 0,0 q0,0 0,0 q0,0 0,0 q0,0 0,0 q0,0 0,0 q0,0 0,0 q0,0 0,0 q0,0 0,0 q0,0 0,0 q0,0 0,0 q0,0 0,0 q0,0 0,0 q0,0 0,0 q0,0 0,0 q0,0 0,0 q0,0 0,0 q0,0 0,0 Z M296,-278 q0,0 0,0 q0,0 0,0 q0,0 0,0 q0,0 0,0 q0,0 0,0 q0,0 0,0 q0,0 0,0 q0,0 0,0 q0,0 0,0 q0,0 0,0 q0,0 0,0 q0,0 0,0 q0,0 0,0 q0,0 0,0 q0,0 0,0 q0,0 0,0 q0,0 0,0 q0,0 0,0 q0,0 0,0 q0,0 0,0 q0,0 0,0 q0,0 0,0 q0,0 0,0 q0,0 0,0 q0,0 0,0 q0,0 0,0 q0,0 0,0 q0,0 0,0 q0,0 0,0 q0,0 0,0 q0,0 -34,0 q-34,0 -84,0 q-50,0 -100,0 q-50,0 -84,0 q-34,0 -34,0 q0,0 0,0 q0,0 0,0 q0,0 0,0 q0,0 0,0 q0,0 0,0 q0,0 0,0 q0,0 0,0 q0,0 0,0 q0,0 0,0 q0,0 0,12.5 q0,12.5 0,31.5 q0,19 0,40.5 q0,21.5 0,40.5 q0,19 0,31 q0,12 0,12 q0,0 0,0 q0,0 0,0 v134 q0,0 0,0 q0,0 0,0 q0,0 0,0 q0,0 0,0 q0,0 32,0 q32,0 85.5,0 q53.5,0 119.5,0 q66,0 134,0 q68,0 129.5,0 q61.5,0 106.5,0 q45,0 63,0 q0,0 0,0 q0,0 0,0 q0,0 0,0 q0,0 0,0 q0,0 0,0 q0,0 0,0 q0,0 0,0 q0,0 0,0 q0,0 0,0 q0,0 0,0 q0,0 0,0 q0,0 0,0 q21,0 77.5,0 q56.5,0 132.5,0 q76,0 156,0 q80,0 149,0 q69,0 112,0 q43,0 43,0 q0,0 0,0 q0,0 0,0 q0,0 0,0 q0,0 0,0 q0,0 0,-20 q0,-20 0,-46.5 q0,-26.5 0,-47 q0,-20.5 0,-20.5 q0,0 0,0 q0,0 0,0 q0,0 -54.5,-9 q-54.5,-9 -144,-24 q-89.5,-15 -196.5,-33 q-107,-18 -214,-36 q-107,-18 -196.5,-33 q-89.5,-15 -144,-24 q-54.5,-9 -54.5,-9 q0,0 0,0 q0,0 0,0 q0,0 0,0 q0,0 0,0 q0,0 0,0 q0,0 0,0 q0,0 0,0 q0,0 0,0 q0,0 0,0 q0,0 0,0 q0,0 0,0 q0,0 0,0 q0,0 0,0 q0,0 0,0 q0,0 0,0 q0,0 0,0 q0,0 0,0 q0,0 0,0 q0,0 0,0 q0,0 0,0 q0,0 0,0 q0,0 0,0 q0,0 0,0 q0,0 0,0 q0,0 0,0 Z" fill="url(#gradient_0)" transform="matrix(0.125,0,0,-0.125,132.5,112)"/>
  <path d="M-6,40 v898 h278 h194 h166 h158 h204 h284 v-898 h-284 h-208 h-156 h-164 h-188 h-284 Z" fill="url(#gradient_1)" transform="matrix(0.125,0,0,-0.125,132.5,112)"/>
  <path d="M-40,712 h80 q0,-55 0,-88 q0,-33 0,-63.5 q0,-30.5 0,-78.5 q0,0 0,0 q0,0 0,0 q0,0 0,0 q0,0 0,0 q0,-50 0,-76 q0,-26 0,-43.5 q0,-17.5 0,-41 q0,-23.5 0,-69.5 h-80 v460 Z M630,0 q-13,40 -17.5,84 q-4.5,44 0,88 q4.5,44 17.5,84 q0,0 6,0 q6,0 6,0 q0,0 12,-18 q12,-18 30,-44 q18,-26 36,-52 q18,-26 30,-44 q12,-18 12,-18 q0,0 0,0 q0,0 0,0 q0,0 0,0 q0,0 30,0 q30,0 74,0 q44,0 88,0 q44,0 74,0 q30,0 30,0 q0,0 0,0 q0,0 0,0 q0,0 0,0 q3,0 20,15 q17,15 41,38 q24,23 47,46.5 q23,23.5 38.5,40.5 q15.5,17 15.5,20 v318 h80 q0,-78 0,-158.5 q0,-80.5 0,-177 q0,-96.5 0,-222.5 q0,0 0,0 q0,0 0,0 q0,0 -48.5,0 q-48.5,0 -124.5,0 q-76,0 -162,0 q-86,0 -162,0 q-76,0 -124.5,0 q-48.5,0 -48.5,0 q0,0 0,0 q0,0 0,0 q0,0 0,0 q0,0 0,0 q0,0 0,0 q0,0 0,0 q0,0 0,0 q0,0 0,0 q0,0 0,0 Z M1300,714 v-460 h-80 q0,46 0,69.5 q0,23.5 0,41 q0,17.5 0,43.5 q0,26 0,76 q0,0 0,0 q0,0 0,0 q0,0 0,0 q0,0 0,0 q0,48 0,78.5 q0,30.5 0,63.5 q0,33 0,88 h80 Z M1300,390 h-80 q0,0 0,50.5 q0,50.5 0,124.5 q0,74 0,148 q0,74 0,124.5 q0,50.5 0,50.5 q0,0 0,0 q0,0 0,0 q0,0 0,0 q0,0 0,0 q0,0 0,0 q0,0 0,0 q0,0 0,0 q0,0 0,0 q0,0 0,0 q0,0 0,0 q0,0 -44,0 q-44,0 -113.5,0 q-69.5,0 -147.5,0 q-78,0 -147.5,0 q-69.5,0 -113.5,0 q-44,0 -44,0 q0,0 0,0 q0,0 0,0 q0,23 0,40.5 q0,17.5 0,39.5 q0,0 0,0 q0,0 0,0 q0,0 0,0 q0,0 0,0 q0,0 0,0 q0,0 0,0 q0,0 0,0 q5,0 56.5,0 q51.5,0 130,0 q78.5,0 165.5,0 q87,0 164,0 q77,0 125.5,0 q48.5,0 48.5,0 q0,0 0,0 q0,0 0,0 q0,0 0,0 q0,0 0,-41.5 q0,-41.5 0,-107.5 q0,-66 0,-140 q0,-74 0,-140 q0,-66 0,-107.5 q0,-41.5 0,-41.5 Z M-40,390 q0,0 0,41.5 q0,41.5 0,107.5 q0,66 0,140 q0,74 0,140 q0,66 0,107.5 q0,41.5 0,41.5 q0,0 0,0 q0,0 0,0 q0,0 0,0 q0,0 48.5,0 q48.5,0 125.5,0 q77,0 164,0 q87,0 165.5,0 q78.5,0 130.5,0 q52,0 56,0 q0,0 0,0 q0,0 0,0 q0,0 0,0 q0,0 0,0 q0,0 0,0 q0,0 0,0 q0,0 0,0 q0,-22 0,-39.5 q0,-17.5 0,-40.5 q0,0 0,0 q0,0 0,0 q0,0 -44,0 q-44,0 -113.5,0 q-69.5,0 -147.5,0 q-78,0 -147.5,0 q-69.5,0 -113.5,0 q-44,0 -44,0 q0,0 0,0 q0,0 0,0 q0,0 0,0 q0,0 0,0 q0,0 0,0 q0,0 0,0 q0,0 0,0 q0,0 0,0 q0,0 0,0 q0,0 0,0 q0,0 0,-50.5 q0,-50.5 0,-124.5 q0,-74 0,-148 q0,-74 0,-124.5 q0,-50.5 0,-50.5 h-80 Z M630,0 q0,0 0,0 q0,0 0,0 q0,0 0,0 q0,0 0,0 q0,0 0,0 q0,0 0,0 q0,0 0,0 q0,0 0,0 q0,0 0,0 q0,0 -48.5,0 q-48.5,0 -124.5,0 q-76,0 -162,0 q-86,0 -162,0 q-76,0 -124.5,0 q-48.5,0 -48.5,0 q0,0 0,0 q0,0 0,0 q0,126 0,222.5 q0,96.5 0,177 q0,80.5 0,158.5 h80 v-318 q0,-3 15.5,-20 q15.5,-17 38.5,-40.5 q23,-23.5 47,-46.5 q24,-23 41,-38 q17,-15 20,-15 q0,0 0,0 q0,0 0,0 q0,0 0,0 q0,0 30,0 q30,0 74,0 q44,0 88,0 q44,0 74,0 q30,0 30,0 q0,0 0,0 q0,0 0,0 q0,0 0,0 q0,0 12,18 q12,18 30,44 q18,26 36,52 q18,26 30,44 q12,18 12,18 q0,0 6,0 q6,0 6,0 q13,-40 17.5,-84 q4.5,-44 0,-88 q-4.5,-44 -17.5,-84 Z M396,908 q0,0 16,0 q16,0 32,0 q16,0 16,0 q3,0 4.5,0 q1.5,0 2.5,-1 q1,-1 1,-2.5 q0,-1.5 0,-4.5 q0,0 0,0 q0,0 0,0 q0,0 0,0 q0,0 0,0 q0,0 0,0 q0,0 0,-31 q0,-31 0,-79.5 q0,-48.5 0,-103.5 q0,-55 0,-103.5 q0,-48.5 0,-79.5 q0,-31 0,-31 q0,-4 -0.5,-5.5 q-0.5,-1.5 -2,-2 q-1.5,-0.5 -5.5,-0.5 q0,0 -16,0 q-16,0 -32,0 q-16,0 -16,0 q-4,0 -5.5,0.5 q-1.5,0.5 -2,2 q-0.5,1.5 -0.5,5.5 q0,0 0,31 q0,31 0,79.5 q0,48.5 0,103.5 q0,55 0,103.5 q0,48.5 0,79.5 q0,31 0,31 q0,0 0,0 q0,0 0,0 q0,0 0,0 q0,0 0,0 q0,0 0,0 q0,3 0,4.5 q0,1.5 1,2.5 q1,1 2.5,1 q1.5,0 4.5,0 Z M844,908 q3,0 4.5,0 q1.5,0 2.5,-1 q1,-1 1,-2.5 q0,-1.5 0,-4.5 q0,0 0,0 q0,0 0,0 q0,0 0,0 q0,0 0,0 q0,0 0,0 q0,0 0,-31 q0,-31 0,-79.5 q0,-48.5 0,-103.5 q0,-55 0,-103.5 q0,-48.5 0,-79.5 q0,-31 0,-31 q0,-4 -0.5,-5.5 q-0.5,-1.5 -2,-2 q-1.5,-0.5 -5.5,-0.5 q0,0 -16,0 q-16,0 -32,0 q-16,0 -16,0 q-4,0 -5.5,0.5 q-1.5,0.5 -2,2 q-0.5,1.5 -0.5,5.5 q0,0 0,31 q0,31 0,79.5 q0,48.5 0,103.5 q0,55 0,103.5 q0,48.5 0,79.5 q0,31 0,31 q0,0 0,0 q0,0 0,0 q0,0 0,0 q0,0 0,0 q0,0 0,0 q0,3 0,4.5 q0,1.5 1,2.5 q1,1 2.5,1 q1.5,0 4.5,0 q0,0 16,0 q16,0 32,0 q16,0 16,0 Z" fill="url(#gradient_0)" transform="matrix(0.125,0,0,-0.125,132.5,112)"/>
  <path d="M228,-278 q0,0 0,0 q0,0 0,0 q0,0 0,0 q0,0 0,0 q0,0 0,0 q0,0 0,0 q0,0 0,0 q0,0 0,0 q0,0 0,0 q0,0 0,0 q0,0 0,0 q0,0 0,0 q0,0 0,0 q0,0 0,0 q0,0 0,0 q0,0 0,0 q0,0 0,0 q0,0 0,0 q0,0 0,0 q0,0 0,0 q0,0 0,0 q0,0 0,0 q0,0 0,0 q0,0 0,0 q0,0 0,0 q0,0 0,0 q0,0 0,0 q0,0 0,0 q0,0 0,0 q0,0 0,0 q0,0 -40.5,0 q-40.5,0 -93.5,0 q-53,0 -93.5,0 q-40.5,0 -40.5,0 q0,0 0,0 q0,0 0,0 q0,0 0,0 q0,0 0,0 q0,0 0,0 q0,0 0,0 q0,0 0,0 q0,0 0,0 q0,0 0,12.5 q0,12.5 0,31.5 q0,19 0,40.5 q0,21.5 0,40.5 q0,19 0,31 q0,12 0,12 q0,0 0,0 q0,0 0,0 v134 q0,0 0,0 q0,0 0,0 q0,0 0,0 q0,0 0,0 q0,0 38.5,0 q38.5,0 99,0 q60.5,0 128.5,0 q68,0 128.5,0 q60.5,0 99,0 q38.5,0 38.5,0 q0,0 0,0 q0,0 0,0 q0,0 0,0 q0,0 0,0 q0,0 0,0 q0,0 0,0 q0,0 38.5,0 q38.5,0 99,0 q60.5,0 128.5,0 q68,0 128.5,0 q60.5,0 99,0 q38.5,0 38.5,0 q0,0 0,0 q0,0 0,0 q0,0 0,0 q0,0 0,0 q0,0 0,-20 q0,-20 0,-46.5 q0,-26.5 0,-47 q0,-20.5 0,-20.5 q0,0 0,0 q0,0 0,0 q0,0 -43,-9 q-43,-9 -114,-24 q-71,-15 -156,-33 q-85,-18 -170,-36 q-85,-18 -156,-33 q-71,-15 -114,-24 q-43,-9 -43,-9 q0,0 0,0 q0,0 0,0 q0,0 0,0 q0,0 0,0 q0,0 0,0 q0,0 0,0 q0,0 0,0 q0,0 0,0 q0,0 0,0 q0,0 0,0 q0,0 0,0 q0,0 0,0 q0,0 0,0 q0,0 0,0 q0,0 0,0 Z M228,-278 q0,0 0,0 q0,0 0,0 q0,0 0,0 q0,0 0,0 q0,0 0,0 q0,0 0,0 q0,0 0,0 q0,0 0,0 q0,0 0,0 q0,0 0,0 q0,0 0,0 q0,0 0,0 q0,0 0,0 q0,0 0,0 q0,0 0,0 q0,0 0,0 q0,0 0,0 q0,0 0,0 q0,0 0,0 q0,0 0,0 q0,0 0,0 q0,0 0,0 q0,0 0,0 q0,0 0,0 q0,0 0,0 q0,0 0,0 q0,0 0,0 q0,0 0,0 q0,0 0,0 q0,0 0,0 q0,0 -40.5,0 q-40.5,0 -93.5,0 q-53,0 -93.5,0 q-40.5,0 -40.5,0 q0,0 0,0 q0,0 0,0 q0,0 0,0 q0,0 0,0 q0,0 0,0 q0,0 0,0 q0,0 0,0 q0,0 0,0 q0,0 0,12.5 q0,12.5 0,31.5 q0,19 0,40.5 q0,21.5 0,40.5 q0,19 0,31 q0,12 0,12 q0,0 0,0 q0,0 0,0 v134 q0,0 0,0 q0,0 0,0 q0,0 0,0 q0,0 0,0 q0,0 38.5,0 q38.5,0 99,0 q60.5,0 128.5,0 q68,0 128.5,0 q60.5,0 99,0 q38.5,0 38.5,0 q0,0 0,0 q0,0 0,0 q0,0 0,0 q0,0 0,0 q0,0 0,0 q0,0 0,0 q0,0 38.5,0 q38.5,0 99,0 q60.5,0 128.5,0 q68,0 128.5,0 q60.5,0 99,0 q38.5,0 38.5,0 q0,0 0,0 q0,0 0,0 q0,0 0,0 q0,0 0,0 q0,0 0,-20 q0,-20 0,-46.5 q0,-26.5 0,-47 q0,-20.5 0,-20.5 q0,0 0,0 q0,0 0,0 q0,0 -43,-9 q-43,-9 -114,-24 q-71,-15 -156,-33 q-85,-18 -170,-36 q-85,-18 -156,-33 q-71,-15 -114,-24 q-43,-9 -43,-9 q0,0 0,0 q0,0 0,0 q0,0 0,0 q0,0 0,0 q0,0 0,0 q0,0 0,0 q0,0 0,0 q0,0 0,0 q0,0 0,0 q0,0 0,0 q0,0 0,0 q0,0 0,0 q0,0 0,0 q0,0 0,0 q0,0 0,0 Z" fill="url(#gradient_0)" transform="matrix(0.125,0,0,-0.125,290,112)"/>
  <path d="M-6,938 h230 h270 h271 h230 v-898 h-230 h-267 h-274 h-230 v898 Z" fill="url(#gradient_1)" transform="matrix(0.125,0,0,-0.125,290,112)"/>
  <path d="M-40,410 q0,46 0,104 q0,58 0,121 q0,63 0,122 q0,59 0,107 q0,48 0,76 q0,28 0,28 q0,0 0,0 q0,0 0,0 q0,0 0,0 q0,0 0,0 q0,0 39.5,0 q39.5,0 101,0 q61.5,0 131.5,0 q70,0 131.5,0 q61.5,0 101,0 q39.5,0 39.5,0 q0,0 0,0 q0,0 0,0 q0,0 0,0 q0,0 0,0 q0,0 0,0 q0,-19 0,-39.5 q0,-20.5 0,-40.5 q-5,0 -33,0 q-28,0 -68.5,0 q-40.5,0 -82,0 q-41.5,0 -74,0 q-32.5,0 -44.5,0 q0,0 0,0 q0,0 0,0 q0,0 0,0 q0,0 0,0 q-3,0 -20,-15 q-17,-15 -41,-38 q-24,-23 -47,-46.5 q-23,-23.5 -38.5,-40.5 q-15.5,-17 -15.5,-20 v-318 h-80 Z M-40,714 h80 q0,-55 0,-88 q0,-33 0,-63.5 q0,-30.5 0,-78.5 q0,0 0,0 q0,0 0,0 q0,0 0,0 q0,0 0,0 q0,-50 0,-76 q0,-26 0,-43.5 q0,-17.5 0,-41 q0,-23.5 0,-69.5 h-80 v460 Z M-40,558 h80 v-318 q0,-3 15.5,-20 q15.5,-17 38.5,-40.5 q23,-23.5 47,-46.5 q24,-23 41,-38 q17,-15 20,-15 q0,0 0,0 q0,0 0,0 q0,0 0,0 q0,0 0,0 q12,0 44.5,0 q32.5,0 74,0 q41.5,0 82,0 q40.5,0 68.5,0 q28,0 33,0 q0,-19 0,-39.5 q0,-20.5 0,-40.5 q0,0 0,0 q0,0 0,0 q0,0 0,0 q0,0 0,0 q0,0 0,0 q0,0 -39.5,0 q-39.5,0 -101,0 q-61.5,0 -131.5,0 q-70,0 -131.5,0 q-61.5,0 -101,0 q-39.5,0 -39.5,0 q0,0 0,0 q0,0 0,0 q0,0 0,0 q0,0 0,0 q0,0 0,28 q0,28 0,76 q0,48 0,107 q0,59 0,121.5 q0,62.5 0,121.5 q0,59 0,104 Z M1024,410 h-80 v318 q0,3 -15.5,20 q-15.5,17 -38.5,40.5 q-23,23.5 -47,46.5 q-24,23 -41,38 q-17,15 -20,15 q0,0 0,0 q0,0 0,0 q0,0 0,0 q0,0 0,0 q-12,0 -44.5,0 q-32.5,0 -74,0 q-41.5,0 -82,0 q-40.5,0 -68.5,0 q-28,0 -33,0 q0,20 0,40.5 q0,20.5 0,39.5 q0,0 0,0 q0,0 0,0 q0,0 0,0 q0,0 0,0 q0,0 0,0 q0,0 39.5,0 q39.5,0 101,0 q61.5,0 131.5,0 q70,0 131.5,0 q61.5,0 101,0 q39.5,0 39.5,0 q0,0 0,0 q0,0 0,0 q0,0 0,0 q0,0 0,0 q0,0 0,-28 q0,-28 0,-76 q0,-48 0,-107 q0,-59 0,-122 q0,-63 0,-121 q0,-58 0,-104 Z M1024,498 q0,0 0,-36 q0,-36 0,-92.5 q0,-56.5 0,-120.5 q0,-64 0,-120.5 q0,-56.5 0,-92.5 q0,-36 0,-36 q0,0 0,0 q0,0 0,0 q0,0 0,0 q0,0 0,0 q0,0 -39.5,0 q-39.5,0 -101,0 q-61.5,0 -131.5,0 q-70,0 -131.5,0 q-61.5,0 -101,0 q-39.5,0 -39.5,0 q0,0 0,0 q0,0 0,0 q0,0 0,0 q0,0 0,0 q0,0 0,0 q0,20 0,40.5 q0,20.5 0,39.5 q0,0 47,0 q47,0 116,0 q69,0 138,0 q69,0 116,0 q47,0 47,0 q0,0 0,0 q0,0 0,0 q0,0 0,0 q0,0 0,0 q0,0 0,0 q0,0 0,0 q0,0 0,0 q0,0 0,0 q0,0 0,0 q0,0 0,0 q0,0 0,0 q0,0 0,42 q0,42 0,104.5 q0,62.5 0,125 q0,62.5 0,104.5 q0,42 0,42 h80 Z M620,642 q0,0 0,0 q0,0 0,0 q0,0 0,0 q0,0 0,0 q0,0 0,0 q0,0 0,0 q0,0 0,0 q6,0 7,-1 q1,-1 1,-7 q0,-11 0,-21.5 q0,-10.5 0,-21 q0,-10.5 0,-21.5 q0,-6 -1,-7 q-1,-1 -7,-1 q0,0 0,0 q0,0 0,0 q0,0 0,0 q0,0 0,0 q0,0 0,0 q0,0 0,0 q0,0 0,0 q0,0 -37.5,0 q-37.5,0 -86.5,0 q-49,0 -86.5,0 q-37.5,0 -37.5,0 q0,0 0,0 q0,0 0,0 q-6,0 -7,1 q-1,1 -1,7 q0,11 0,21.5 q0,10.5 0,21 q0,10.5 0,21.5 q0,6 1,7 q1,1 7,1 q0,0 0,0 q0,0 0,0 q0,0 37.5,0 q37.5,0 86.5,0 q49,0 86.5,0 q37.5,0 37.5,0 Z M982,326 h-38 q0,0 0,7 q0,7 0,14 q0,7 0,7 q0,0 -40.5,-6 q-40.5,-6 -100,-14.5 q-59.5,-8.5 -119,-17 q-59.5,-8.5 -100,-14.5 q-40.5,-6 -40.5,-6 q0,0 -0.5,4 q-0.5,4 -2,12.5 q-1.5,8.5 -3.5,21.5 q-2,13 -3.5,22 q-1.5,9 -2,13.5 q-0.5,4.5 -0.5,4.5 q0,0 41.5,6 q41.5,6 103,15 q61.5,9 123,18 q61.5,9 103,15 q41.5,6 41.5,6 q0,0 0,9.5 q0,9.5 0,19 q0,9.5 0,9.5 h38 v-146 Z" fill="url(#gradient_0)" transform="matrix(0.125,0,0,-0.125,290,112)"/>
  <path d="M228,-278 q0,0 0,0 q0,0 0,0 q0,0 0,0 q0,0 0,0 q0,0 0,0 q0,0 0,0 q0,0 0,0 q0,0 0,0 q0,0 0,0 q0,0 0,0 q0,0 0,0 q0,0 0,0 q0,0 0,0 q0,0 0,0 q0,0 0,0 q0,0 0,0 q0,0 0,0 q0,0 0,0 q0,0 0,0 q0,0 0,0 q0,0 0,0 q0,0 0,0 q0,0 0,0 q0,0 0,0 q0,0 0,0 q0,0 0,0 q0,0 0,0 q0,0 0,0 q0,0 0,0 q0,0 0,0 q0,0 -40.5,0 q-40.5,0 -93.5,0 q-53,0 -93.5,0 q-40.5,0 -40.5,0 q0,0 0,0 q0,0 0,0 q0,0 0,0 q0,0 0,0 q0,0 0,0 q0,0 0,0 q0,0 0,0 q0,0 0,0 q0,0 0,12.5 q0,12.5 0,31.5 q0,19 0,40.5 q0,21.5 0,40.5 q0,19 0,31 q0,12 0,12 q0,0 0,0 q0,0 0,0 v134 q0,0 0,0 q0,0 0,0 q0,0 0,0 q0,0 0,0 q0,0 38.5,0 q38.5,0 99,0 q60.5,0 128.5,0 q68,0 128.5,0 q60.5,0 99,0 q38.5,0 38.5,0 q0,0 0,0 q0,0 0,0 q0,0 0,0 q0,0 0,0 q0,0 0,0 q0,0 0,0 q0,0 38.5,0 q38.5,0 99,0 q60.5,0 128.5,0 q68,0 128.5,0 q60.5,0 99,0 q38.5,0 38.5,0 q0,0 0,0 q0,0 0,0 q0,0 0,0 q0,0 0,0 q0,0 0,-20 q0,-20 0,-46.5 q0,-26.5 0,-47 q0,-20.5 0,-20.5 q0,0 0,0 q0,0 0,0 q0,0 -43,-9 q-43,-9 -114,-24 q-71,-15 -156,-33 q-85,-18 -170,-36 q-85,-18 -156,-33 q-71,-15 -114,-24 q-43,-9 -43,-9 q0,0 0,0 q0,0 0,0 q0,0 0,0 q0,0 0,0 q0,0 0,0 q0,0 0,0 q0,0 0,0 q0,0 0,0 q0,0 0,0 q0,0 0,0 q0,0 0,0 q0,0 0,0 q0,0 0,0 q0,0 0,0 q0,0 0,0 Z M228,-278 q0,0 0,0 q0,0 0,0 q0,0 0,0 q0,0 0,0 q0,0 0,0 q0,0 0,0 q0,0 0,0 q0,0 0,0 q0,0 0,0 q0,0 0,0 q0,0 0,0 q0,0 0,0 q0,0 0,0 q0,0 0,0 q0,0 0,0 q0,0 0,0 q0,0 0,0 q0,0 0,0 q0,0 0,0 q0,0 0,0 q0,0 0,0 q0,0 0,0 q0,0 0,0 q0,0 0,0 q0,0 0,0 q0,0 0,0 q0,0 0,0 q0,0 0,0 q0,0 0,0 q0,0 0,0 q0,0 -40.5,0 q-40.5,0 -93.5,0 q-53,0 -93.5,0 q-40.5,0 -40.5,0 q0,0 0,0 q0,0 0,0 q0,0 0,0 q0,0 0,0 q0,0 0,0 q0,0 0,0 q0,0 0,0 q0,0 0,0 q0,0 0,12.5 q0,12.5 0,31.5 q0,19 0,40.5 q0,21.5 0,40.5 q0,19 0,31 q0,12 0,12 q0,0 0,0 q0,0 0,0 v134 q0,0 0,0 q0,0 0,0 q0,0 0,0 q0,0 0,0 q0,0 38.5,0 q38.5,0 99,0 q60.5,0 128.5,0 q68,0 128.5,0 q60.5,0 99,0 q38.5,0 38.5,0 q0,0 0,0 q0,0 0,0 q0,0 0,0 q0,0 0,0 q0,0 0,0 q0,0 0,0 q0,0 38.5,0 q38.5,0 99,0 q60.5,0 128.5,0 q68,0 128.5,0 q60.5,0 99,0 q38.5,0 38.5,0 q0,0 0,0 q0,0 0,0 q0,0 0,0 q0,0 0,0 q0,0 0,-20 q0,-20 0,-46.5 q0,-26.5 0,-47 q0,-20.5 0,-20.5 q0,0 0,0 q0,0 0,0 q0,0 -43,-9 q-43,-9 -114,-24 q-71,-15 -156,-33 q-85,-18 -170,-36 q-85,-18 -156,-33 q-71,-15 -114,-24 q-43,-9 -43,-9 q0,0 0,0 q0,0 0,0 q0,0 0,0 q0,0 0,0 q0,0 0,0 q0,0 0,0 q0,0 0,0 q0,0 0,0 q0,0 0,0 q0,0 0,0 q0,0 0,0 q0,0 0,0 q0,0 0,0 q0,0 0,0 q0,0 0,0 Z" fill="url(#gradient_0)" transform="matrix(0.125,0,0,-0.125,413,112)"/>
  <path d="M-6,938 h230 h270 h271 h230 v-898 h-230 h-267 h-274 h-230 v898 Z" fill="url(#gradient_1)" transform="matrix(0.125,0,0,-0.125,413,112)"/>
  <path d="M-40,410 q0,46 0,104 q0,58 0,121 q0,63 0,122 q0,59 0,107 q0,48 0,76 q0,28 0,28 q0,0 0,0 q0,0 0,0 q0,0 0,0 q0,0 0,0 q0,0 39.5,0 q39.5,0 101,0 q61.5,0 131.5,0 q70,0 131.5,0 q61.5,0 101,0 q39.5,0 39.5,0 q0,0 0,0 q0,0 0,0 q0,0 0,0 q0,0 0,0 q0,0 0,0 q0,-19 0,-39.5 q0,-20.5 0,-40.5 q-5,0 -33,0 q-28,0 -68.5,0 q-40.5,0 -82,0 q-41.5,0 -74,0 q-32.5,0 -44.5,0 q0,0 0,0 q0,0 0,0 q0,0 0,0 q0,0 0,0 q-3,0 -20,-15 q-17,-15 -41,-38 q-24,-23 -47,-46.5 q-23,-23.5 -38.5,-40.5 q-15.5,-17 -15.5,-20 v-318 h-80 Z M-40,714 h80 q0,-55 0,-88 q0,-33 0,-63.5 q0,-30.5 0,-78.5 q0,0 0,0 q0,0 0,0 q0,0 0,0 q0,0 0,0 q0,-50 0,-76 q0,-26 0,-43.5 q0,-17.5 0,-41 q0,-23.5 0,-69.5 h-80 v460 Z M-40,558 h80 v-318 q0,-3 15.5,-20 q15.5,-17 38.5,-40.5 q23,-23.5 47,-46.5 q24,-23 41,-38 q17,-15 20,-15 q0,0 0,0 q0,0 0,0 q0,0 0,0 q0,0 0,0 q12,0 44.5,0 q32.5,0 74,0 q41.5,0 82,0 q40.5,0 68.5,0 q28,0 33,0 q0,-19 0,-39.5 q0,-20.5 0,-40.5 q0,0 0,0 q0,0 0,0 q0,0 0,0 q0,0 0,0 q0,0 0,0 q0,0 -39.5,0 q-39.5,0 -101,0 q-61.5,0 -131.5,0 q-70,0 -131.5,0 q-61.5,0 -101,0 q-39.5,0 -39.5,0 q0,0 0,0 q0,0 0,0 q0,0 0,0 q0,0 0,0 q0,0 0,28 q0,28 0,76 q0,48 0,107 q0,59 0,121.5 q0,62.5 0,121.5 q0,59 0,104 Z M1024,410 h-80 v318 q0,3 -15.5,20 q-15.5,17 -38.5,40.5 q-23,23.5 -47,46.5 q-24,23 -41,38 q-17,15 -20,15 q0,0 0,0 q0,0 0,0 q0,0 0,0 q0,0 0,0 q-12,0 -44.5,0 q-32.5,0 -74,0 q-41.5,0 -82,0 q-40.5,0 -68.5,0 q-28,0 -33,0 q0,20 0,40.5 q0,20.5 0,39.5 q0,0 0,0 q0,0 0,0 q0,0 0,0 q0,0 0,0 q0,0 0,0 q0,0 39.5,0 q39.5,0 101,0 q61.5,0 131.5,0 q70,0 131.5,0 q61.5,0 101,0 q39.5,0 39.5,0 q0,0 0,0 q0,0 0,0 q0,0 0,0 q0,0 0,0 q0,0 0,-28 q0,-28 0,-76 q0,-48 0,-107 q0,-59 0,-122 q0,-63 0,-121 q0,-58 0,-104 Z M1024,498 q0,0 0,-36 q0,-36 0,-92.5 q0,-56.5 0,-120.5 q0,-64 0,-120.5 q0,-56.5 0,-92.5 q0,-36 0,-36 q0,0 0,0 q0,0 0,0 q0,0 0,0 q0,0 0,0 q0,0 -39.5,0 q-39.5,0 -101,0 q-61.5,0 -131.5,0 q-70,0 -131.5,0 q-61.5,0 -101,0 q-39.5,0 -39.5,0 q0,0 0,0 q0,0 0,0 q0,0 0,0 q0,0 0,0 q0,0 0,0 q0,20 0,40.5 q0,20.5 0,39.5 q0,0 47,0 q47,0 116,0 q69,0 138,0 q69,0 116,0 q47,0 47,0 q0,0 0,0 q0,0 0,0 q0,0 0,0 q0,0 0,0 q0,0 0,0 q0,0 0,0 q0,0 0,0 q0,0 0,0 q0,0 0,0 q0,0 0,0 q0,0 0,0 q0,0 0,42 q0,42 0,104.5 q0,62.5 0,125 q0,62.5 0,104.5 q0,42 0,42 h80 Z M620,642 q0,0 0,0 q0,0 0,0 q0,0 0,0 q0,0 0,0 q0,0 0,0 q0,0 0,0 q0,0 0,0 q6,0 7,-1 q1,-1 1,-7 q0,-11 0,-21.5 q0,-10.5 0,-21 q0,-10.5 0,-21.5 q0,-6 -1,-7 q-1,-1 -7,-1 q0,0 0,0 q0,0 0,0 q0,0 0,0 q0,0 0,0 q0,0 0,0 q0,0 0,0 q0,0 0,0 q0,0 -37.5,0 q-37.5,0 -86.5,0 q-49,0 -86.5,0 q-37.5,0 -37.5,0 q0,0 0,0 q0,0 0,0 q-6,0 -7,1 q-1,1 -1,7 q0,11 0,21.5 q0,10.5 0,21 q0,10.5 0,21.5 q0,6 1,7 q1,1 7,1 q0,0 0,0 q0,0 0,0 q0,0 37.5,0 q37.5,0 86.5,0 q49,0 86.5,0 q37.5,0 37.5,0 Z M982,326 h-38 q0,0 0,7 q0,7 0,14 q0,7 0,7 q0,0 -40.5,-6 q-40.5,-6 -100,-14.5 q-59.5,-8.5 -119,-17 q-59.5,-8.5 -100,-14.5 q-40.5,-6 -40.5,-6 q0,0 -0.5,4 q-0.5,4 -2,12.5 q-1.5,8.5 -3.5,21.5 q-2,13 -3.5,22 q-1.5,9 -2,13.5 q-0.5,4.5 -0.5,4.5 q0,0 41.5,6 q41.5,6 103,15 q61.5,9 123,18 q61.5,9 103,15 q41.5,6 41.5,6 q0,0 0,9.5 q0,9.5 0,19 q0,9.5 0,9.5 h38 v-146 Z" fill="url(#gradient_0)" transform="matrix(0.125,0,0,-0.125,413,112)"/>
  <path d="M228,-278 q0,0 0,0 q0,0 0,0 q0,0 0,0 q0,0 0,0 q0,0 0,0 q0,0 0,0 q0,0 0,0 q0,0 0,0 q0,0 0,0 q0,0 0,0 q0,0 0,0 q0,0 0,0 q0,0 0,0 q0,0 0,0 q0,0 0,0 q0,0 0,0 q0,0 0,0 q0,0 0,0 q0,0 0,0 q0,0 0,0 q0,0 0,0 q0,0 0,0 q0,0 0,0 q0,0 0,0 q0,0 0,0 q0,0 0,0 q0,0 0,0 q0,0 0,0 q0,0 0,0 q0,0 0,0 q0,0 -40.5,0 q-40.5,0 -93.5,0 q-53,0 -93.5,0 q-40.5,0 -40.5,0 q0,0 0,0 q0,0 0,0 q0,0 0,0 q0,0 0,0 q0,0 0,0 q0,0 0,0 q0,0 0,0 q0,0 0,0 q0,0 0,12.5 q0,12.5 0,31.5 q0,19 0,40.5 q0,21.5 0,40.5 q0,19 0,31 q0,12 0,12 q0,0 0,0 q0,0 0,0 v134 q0,0 0,0 q0,0 0,0 q0,0 0,0 q0,0 0,0 q0,0 38.5,0 q38.5,0 99,0 q60.5,0 128.5,0 q68,0 128.5,0 q60.5,0 99,0 q38.5,0 38.5,0 q0,0 0,0 q0,0 0,0 q0,0 0,0 q0,0 0,0 q0,0 0,0 q0,0 0,0 q0,0 38.5,0 q38.5,0 99,0 q60.5,0 128.5,0 q68,0 128.5,0 q60.5,0 99,0 q38.5,0 38.5,0 q0,0 0,0 q0,0 0,0 q0,0 0,0 q0,0 0,0 q0,0 0,-20 q0,-20 0,-46.5 q0,-26.5 0,-47 q0,-20.5 0,-20.5 q0,0 0,0 q0,0 0,0 q0,0 -43,-9 q-43,-9 -114,-24 q-71,-15 -156,-33 q-85,-18 -170,-36 q-85,-18 -156,-33 q-71,-15 -114,-24 q-43,-9 -43,-9 q0,0 0,0 q0,0 0,0 q0,0 0,0 q0,0 0,0 q0,0 0,0 q0,0 0,0 q0,0 0,0 q0,0 0,0 q0,0 0,0 q0,0 0,0 q0,0 0,0 q0,0 0,0 q0,0 0,0 q0,0 0,0 q0,0 0,0 Z M228,-278 q0,0 0,0 q0,0 0,0 q0,0 0,0 q0,0 0,0 q0,0 0,0 q0,0 0,0 q0,0 0,0 q0,0 0,0 q0,0 0,0 q0,0 0,0 q0,0 0,0 q0,0 0,0 q0,0 0,0 q0,0 0,0 q0,0 0,0 q0,0 0,0 q0,0 0,0 q0,0 0,0 q0,0 0,0 q0,0 0,0 q0,0 0,0 q0,0 0,0 q0,0 0,0 q0,0 0,0 q0,0 0,0 q0,0 0,0 q0,0 0,0 q0,0 0,0 q0,0 0,0 q0,0 0,0 q0,0 -40.5,0 q-40.5,0 -93.5,0 q-53,0 -93.5,0 q-40.5,0 -40.5,0 q0,0 0,0 q0,0 0,0 q0,0 0,0 q0,0 0,0 q0,0 0,0 q0,0 0,0 q0,0 0,0 q0,0 0,0 q0,0 0,12.5 q0,12.5 0,31.5 q0,19 0,40.5 q0,21.5 0,40.5 q0,19 0,31 q0,12 0,12 q0,0 0,0 q0,0 0,0 v134 q0,0 0,0 q0,0 0,0 q0,0 0,0 q0,0 0,0 q0,0 38.5,0 q38.5,0 99,0 q60.5,0 128.5,0 q68,0 128.5,0 q60.5,0 99,0 q38.5,0 38.5,0 q0,0 0,0 q0,0 0,0 q0,0 0,0 q0,0 0,0 q0,0 0,0 q0,0 0,0 q0,0 38.5,0 q38.5,0 99,0 q60.5,0 128.5,0 q68,0 128.5,0 q60.5,0 99,0 q38.5,0 38.5,0 q0,0 0,0 q0,0 0,0 q0,0 0,0 q0,0 0,0 q0,0 0,-20 q0,-20 0,-46.5 q0,-26.5 0,-47 q0,-20.5 0,-20.5 q0,0 0,0 q0,0 0,0 q0,0 -43,-9 q-43,-9 -114,-24 q-71,-15 -156,-33 q-85,-18 -170,-36 q-85,-18 -156,-33 q-71,-15 -114,-24 q-43,-9 -43,-9 q0,0 0,0 q0,0 0,0 q0,0 0,0 q0,0 0,0 q0,0 0,0 q0,0 0,0 q0,0 0,0 q0,0 0,0 q0,0 0,0 q0,0 0,0 q0,0 0,0 q0,0 0,0 q0,0 0,0 q0,0 0,0 q0,0 0,0 Z" fill="url(#gradient_0)" transform="matrix(0.125,0,0,-0.125,536,112)"/>
  <path d="M-6,938 h230 h270 h271 h230 v-898 h-230 h-267 h-274 h-230 v898 Z" fill="url(#gradient_1)" transform="matrix(0.125,0,0,-0.125,536,112)"/>
  <path d="M-40,470 q0,0 0,36 q0,36 0,92.5 q0,56.5 0,120.5 q0,64 0,120.5 q0,56.5 0,92.5 q0,36 0,36 q0,0 0,0 q0,0 0,0 q0,0 0,0 q0,0 0,0 q0,0 39.5,0 q39.5,0 101,0 q61.5,0 131.5,0 q70,0 131.5,0 q61.5,0 101,0 q39.5,0 39.5,0 q0,0 0,0 q0,0 0,0 q0,0 0,0 q0,0 0,0 q0,0 0,0 q0,-19 0,-39.5 q0,-20.5 0,-40.5 q0,0 -47,0 q-47,0 -116,0 q-69,0 -138,0 q-69,0 -116,0 q-47,0 -47,0 q0,0 0,0 q0,0 0,0 q0,0 0,0 q0,0 0,0 q0,0 0,0 q0,0 0,0 q0,0 0,0 q0,0 0,0 q0,0 0,0 q0,0 0,0 q0,0 0,0 q0,0 0,-42 q0,-42 0,-104.5 q0,-62.5 0,-125 q0,-62.5 0,-104.5 q0,-42 0,-42 h-80 Z M1024,470 h-80 q0,0 0,42 q0,42 0,104.5 q0,62.5 0,125 q0,62.5 0,104.5 q0,42 0,42 q0,0 0,0 q0,0 0,0 q0,0 0,0 q0,0 0,0 q0,0 0,0 q0,0 0,0 q0,0 0,0 q0,0 0,0 q0,0 0,0 q0,0 0,0 q0,0 0,0 q0,0 -47,0 q-47,0 -116,0 q-69,0 -138,0 q-69,0 -116,0 q-47,0 -47,0 q0,20 0,40.5 q0,20.5 0,39.5 q0,0 0,0 q0,0 0,0 q0,0 0,0 q0,0 0,0 q0,0 0,0 q0,0 39.5,0 q39.5,0 101,0 q61.5,0 131.5,0 q70,0 131.5,0 q61.5,0 101,0 q39.5,0 39.5,0 q0,0 0,0 q0,0 0,0 q0,0 0,0 q0,0 0,0 q0,0 0,-36 q0,-36 0,-92.5 q0,-56.5 0,-120.5 q0,-64 0,-120.5 q0,-56.5 0,-92.5 q0,-36 0,-36 Z M-40,498 h80 q0,0 0,-42 q0,-42 0,-104.5 q0,-62.5 0,-125 q0,-62.5 0,-104.5 q0,-42 0,-42 q0,0 0,0 q0,0 0,0 q0,0 0,0 q0,0 0,0 q0,0 0,0 q0,0 0,0 q0,0 0,0 q0,0 0,0 q0,0 0,0 q0,0 0,0 q0,0 0,0 q0,0 47,0 q47,0 116,0 q69,0 138,0 q69,0 116,0 q47,0 47,0 q0,-19 0,-39.5 q0,-20.5 0,-40.5 q0,0 0,0 q0,0 0,0 q0,0 0,0 q0,0 0,0 q0,0 0,0 q0,0 -39.5,0 q-39.5,0 -101,0 q-61.5,0 -131.5,0 q-70,0 -131.5,0 q-61.5,0 -101,0 q-39.5,0 -39.5,0 q0,0 0,0 q0,0 0,0 q0,0 0,0 q0,0 0,0 q0,0 0,36 q0,36 0,92.5 q0,56.5 0,120.5 q0,64 0,120.5 q0,56.5 0,92.5 q0,36 0,36 Z M1024,498 q0,0 0,-36 q0,-36 0,-92.5 q0,-56.5 0,-120.5 q0,-64 0,-120.5 q0,-56.5 0,-92.5 q0,-36 0,-36 q0,0 0,0 q0,0 0,0 q0,0 0,0 q0,0 0,0 q0,0 -39.5,0 q-39.5,0 -101,0 q-61.5,0 -131.5,0 q-70,0 -131.5,0 q-61.5,0 -101,0 q-39.5,0 -39.5,0 q0,0 0,0 q0,0 0,0 q0,0 0,0 q0,0 0,0 q0,0 0,0 q0,20 0,40.5 q0,20.5 0,39.5 q0,0 47,0 q47,0 116,0 q69,0 138,0 q69,0 116,0 q47,0 47,0 q0,0 0,0 q0,0 0,0 q0,0 0,0 q0,0 0,0 q0,0 0,0 q0,0 0,0 q0,0 0,0 q0,0 0,0 q0,0 0,0 q0,0 0,0 q0,0 0,0 q0,0 0,42 q0,42 0,104.5 q0,62.5 0,125 q0,62.5 0,104.5 q0,42 0,42 h80 Z M0,612 h38 q0,0 0,-7 q0,-7 0,-14 q0,-7 0,-7 q0,0 40.5,6 q40.5,6 100,14.5 q59.5,8.5 119,17 q59.5,8.5 100,14.5 q40.5,6 40.5,6 q0,0 0.5,-4 q0.5,-4 2,-12.5 q1.5,-8.5 3.5,-21.5 q2,-13 3.5,-22 q1.5,-9 2,-13.5 q0.5,-4.5 0.5,-4.5 q0,0 -41.5,-6 q-41.5,-6 -103,-15 q-61.5,-9 -123,-18 q-61.5,-9 -103,-15 q-41.5,-6 -41.5,-6 q0,0 0,-9.5 q0,-9.5 0,-19 q0,-9.5 0,-9.5 h-38 v146 Z M1002,366 h-38 q0,0 0,7 q0,7 0,14 q0,7 0,7 q0,0 -40.5,-6 q-40.5,-6 -100,-14.5 q-59.5,-8.5 -119,-17 q-59.5,-8.5 -100,-14.5 q-40.5,-6 -40.5,-6 q0,0 -0.5,4 q-0.5,4 -2,12.5 q-1.5,8.5 -3.5,21.5 q-2,13 -3.5,22 q-1.5,9 -2,13.5 q-0.5,4.5 -0.5,4.5 q0,0 41.5,6 q41.5,6 103,15 q61.5,9 123,18 q61.5,9 103,15 q41.5,6 41.5,6 q0,0 0,9.5 q0,9.5 0,19 q0,9.5 0,9.5 h38 v-146 Z" fill="url(#gradient_0)" transform="matrix(0.125,0,0,-0.125,536,112)"/>
  <path d="M228,-278 q0,0 0,0 q0,0 0,0 q0,0 0,0 q0,0 0,0 q0,0 0,0 q0,0 0,0 q0,0 0,0 q0,0 0,0 q0,0 0,0 q0,0 0,0 q0,0 0,0 q0,0 0,0 q0,0 0,0 q0,0 0,0 q0,0 0,0 q0,0 0,0 q0,0 0,0 q0,0 0,0 q0,0 0,0 q0,0 0,0 q0,0 0,0 q0,0 0,0 q0,0 0,0 q0,0 0,0 q0,0 0,0 q0,0 0,0 q0,0 0,0 q0,0 0,0 q0,0 0,0 q0,0 0,0 q0,0 -40.5,0 q-40.5,0 -93.5,0 q-53,0 -93.5,0 q-40.5,0 -40.5,0 q0,0 0,0 q0,0 0,0 q0,0 0,0 q0,0 0,0 q0,0 0,0 q0,0 0,0 q0,0 0,0 q0,0 0,0 q0,0 0,12.5 q0,12.5 0,31.5 q0,19 0,40.5 q0,21.5 0,40.5 q0,19 0,31 q0,12 0,12 q0,0 0,0 q0,0 0,0 v134 q0,0 0,0 q0,0 0,0 q0,0 0,0 q0,0 0,0 q0,0 38.5,0 q38.5,0 99,0 q60.5,0 128.5,0 q68,0 128.5,0 q60.5,0 99,0 q38.5,0 38.5,0 q0,0 0,0 q0,0 0,0 q0,0 0,0 q0,0 0,0 q0,0 0,0 q0,0 0,0 q0,0 38.5,0 q38.5,0 99,0 q60.5,0 128.5,0 q68,0 128.5,0 q60.5,0 99,0 q38.5,0 38.5,0 q0,0 0,0 q0,0 0,0 q0,0 0,0 q0,0 0,0 q0,0 0,-20 q0,-20 0,-46.5 q0,-26.5 0,-47 q0,-20.5 0,-20.5 q0,0 0,0 q0,0 0,0 q0,0 -43,-9 q-43,-9 -114,-24 q-71,-15 -156,-33 q-85,-18 -170,-36 q-85,-18 -156,-33 q-71,-15 -114,-24 q-43,-9 -43,-9 q0,0 0,0 q0,0 0,0 q0,0 0,0 q0,0 0,0 q0,0 0,0 q0,0 0,0 q0,0 0,0 q0,0 0,0 q0,0 0,0 q0,0 0,0 q0,0 0,0 q0,0 0,0 q0,0 0,0 q0,0 0,0 q0,0 0,0 Z M228,-278 q0,0 0,0 q0,0 0,0 q0,0 0,0 q0,0 0,0 q0,0 0,0 q0,0 0,0 q0,0 0,0 q0,0 0,0 q0,0 0,0 q0,0 0,0 q0,0 0,0 q0,0 0,0 q0,0 0,0 q0,0 0,0 q0,0 0,0 q0,0 0,0 q0,0 0,0 q0,0 0,0 q0,0 0,0 q0,0 0,0 q0,0 0,0 q0,0 0,0 q0,0 0,0 q0,0 0,0 q0,0 0,0 q0,0 0,0 q0,0 0,0 q0,0 0,0 q0,0 0,0 q0,0 0,0 q0,0 -40.5,0 q-40.5,0 -93.5,0 q-53,0 -93.5,0 q-40.5,0 -40.5,0 q0,0 0,0 q0,0 0,0 q0,0 0,0 q0,0 0,0 q0,0 0,0 q0,0 0,0 q0,0 0,0 q0,0 0,0 q0,0 0,12.5 q0,12.5 0,31.5 q0,19 0,40.5 q0,21.5 0,40.5 q0,19 0,31 q0,12 0,12 q0,0 0,0 q0,0 0,0 v134 q0,0 0,0 q0,0 0,0 q0,0 0,0 q0,0 0,0 q0,0 38.5,0 q38.5,0 99,0 q60.5,0 128.5,0 q68,0 128.5,0 q60.5,0 99,0 q38.5,0 38.5,0 q0,0 0,0 q0,0 0,0 q0,0 0,0 q0,0 0,0 q0,0 0,0 q0,0 0,0 q0,0 38.5,0 q38.5,0 99,0 q60.5,0 128.5,0 q68,0 128.5,0 q60.5,0 99,0 q38.5,0 38.5,0 q0,0 0,0 q0,0 0,0 q0,0 0,0 q0,0 0,0 q0,0 0,-20 q0,-20 0,-46.5 q0,-26.5 0,-47 q0,-20.5 0,-20.5 q0,0 0,0 q0,0 0,0 q0,0 -43,-9 q-43,-9 -114,-24 q-71,-15 -156,-33 q-85,-18 -170,-36 q-85,-18 -156,-33 q-71,-15 -114,-24 q-43,-9 -43,-9 q0,0 0,0 q0,0 0,0 q0,0 0,0 q0,0 0,0 q0,0 0,0 q0,0 0,0 q0,0 0,0 q0,0 0,0 q0,0 0,0 q0,0 0,0 q0,0 0,0 q0,0 0,0 q0,0 0,0 q0,0 0,0 q0,0 0,0 Z" fill="url(#gradient_0)" transform="matrix(0.125,0,0,-0.125,659,112)"/>
  <path d="M-6,938 h230 h270 h271 h230 v-898 h-230 h-267 h-274 h-230 v898 Z" fill="url(#gradient_1)" transform="matrix(0.125,0,0,-0.125,659,112)"/>
  <path d="M-40,410 q0,46 0,104 q0,58 0,121 q0,63 0,122 q0,59 0,107 q0,48 0,76 q0,28 0,28 q0,0 0,0 q0,0 0,0 q0,0 0,0 q0,0 0,0 q0,0 39.5,0 q39.5,0 101,0 q61.5,0 131.5,0 q70,0 131.5,0 q61.5,0 101,0 q39.5,0 39.5,0 q0,0 0,0 q0,0 0,0 q0,0 0,0 q0,0 0,0 q0,0 0,0 q0,-19 0,-39.5 q0,-20.5 0,-40.5 q-5,0 -33,0 q-28,0 -68.5,0 q-40.5,0 -82,0 q-41.5,0 -74,0 q-32.5,0 -44.5,0 q0,0 0,0 q0,0 0,0 q0,0 0,0 q0,0 0,0 q-3,0 -20,-15 q-17,-15 -41,-38 q-24,-23 -47,-46.5 q-23,-23.5 -38.5,-40.5 q-15.5,-17 -15.5,-20 v-318 h-80 Z M-40,714 h80 q0,-55 0,-88 q0,-33 0,-63.5 q0,-30.5 0,-78.5 q0,0 0,0 q0,0 0,0 q0,0 0,0 q0,0 0,0 q0,-50 0,-76 q0,-26 0,-43.5 q0,-17.5 0,-41 q0,-23.5 0,-69.5 h-80 v460 Z M-40,558 h80 v-318 q0,-3 15.5,-20 q15.5,-17 38.5,-40.5 q23,-23.5 47,-46.5 q24,-23 41,-38 q17,-15 20,-15 q0,0 0,0 q0,0 0,0 q0,0 0,0 q0,0 0,0 q12,0 44.5,0 q32.5,0 74,0 q41.5,0 82,0 q40.5,0 68.5,0 q28,0 33,0 q0,-19 0,-39.5 q0,-20.5 0,-40.5 q0,0 0,0 q0,0 0,0 q0,0 0,0 q0,0 0,0 q0,0 0,0 q0,0 -39.5,0 q-39.5,0 -101,0 q-61.5,0 -131.5,0 q-70,0 -131.5,0 q-61.5,0 -101,0 q-39.5,0 -39.5,0 q0,0 0,0 q0,0 0,0 q0,0 0,0 q0,0 0,0 q0,0 0,28 q0,28 0,76 q0,48 0,107 q0,59 0,121.5 q0,62.5 0,121.5 q0,59 0,104 Z M1024,410 h-80 v318 q0,3 -15.5,20 q-15.5,17 -38.5,40.5 q-23,23.5 -47,46.5 q-24,23 -41,38 q-17,15 -20,15 q0,0 0,0 q0,0 0,0 q0,0 0,0 q0,0 0,0 q-12,0 -44.5,0 q-32.5,0 -74,0 q-41.5,0 -82,0 q-40.5,0 -68.5,0 q-28,0 -33,0 q0,20 0,40.5 q0,20.5 0,39.5 q0,0 0,0 q0,0 0,0 q0,0 0,0 q0,0 0,0 q0,0 0,0 q0,0 39.5,0 q39.5,0 101,0 q61.5,0 131.5,0 q70,0 131.5,0 q61.5,0 101,0 q39.5,0 39.5,0 q0,0 0,0 q0,0 0,0 q0,0 0,0 q0,0 0,0 q0,0 0,-28 q0,-28 0,-76 q0,-48 0,-107 q0,-59 0,-122 q0,-63 0,-121 q0,-58 0,-104 Z M1024,498 q0,0 0,-36 q0,-36 0,-92.5 q0,-56.5 0,-120.5 q0,-64 0,-120.5 q0,-56.5 0,-92.5 q0,-36 0,-36 q0,0 0,0 q0,0 0,0 q0,0 0,0 q0,0 0,0 q0,0 -39.5,0 q-39.5,0 -101,0 q-61.5,0 -131.5,0 q-70,0 -131.5,0 q-61.5,0 -101,0 q-39.5,0 -39.5,0 q0,0 0,0 q0,0 0,0 q0,0 0,0 q0,0 0,0 q0,0 0,0 q0,20 0,40.5 q0,20.5 0,39.5 q0,0 47,0 q47,0 116,0 q69,0 138,0 q69,0 116,0 q47,0 47,0 q0,0 0,0 q0,0 0,0 q0,0 0,0 q0,0 0,0 q0,0 0,0 q0,0 0,0 q0,0 0,0 q0,0 0,0 q0,0 0,0 q0,0 0,0 q0,0 0,0 q0,0 0,42 q0,42 0,104.5 q0,62.5 0,125 q0,62.5 0,104.5 q0,42 0,42 h80 Z M620,642 q0,0 0,0 q0,0 0,0 q0,0 0,0 q0,0 0,0 q0,0 0,0 q0,0 0,0 q0,0 0,0 q6,0 7,-1 q1,-1 1,-7 q0,-11 0,-21.5 q0,-10.5 0,-21 q0,-10.5 0,-21.5 q0,-6 -1,-7 q-1,-1 -7,-1 q0,0 0,0 q0,0 0,0 q0,0 0,0 q0,0 0,0 q0,0 0,0 q0,0 0,0 q0,0 0,0 q0,0 -37.5,0 q-37.5,0 -86.5,0 q-49,0 -86.5,0 q-37.5,0 -37.5,0 q0,0 0,0 q0,0 0,0 q-6,0 -7,1 q-1,1 -1,7 q0,11 0,21.5 q0,10.5 0,21 q0,10.5 0,21.5 q0,6 1,7 q1,1 7,1 q0,0 0,0 q0,0 0,0 q0,0 37.5,0 q37.5,0 86.5,0 q49,0 86.5,0 q37.5,0 37.5,0 Z M982,326 h-38 q0,0 0,7 q0,7 0,14 q0,7 0,7 q0,0 -40.5,-6 q-40.5,-6 -100,-14.5 q-59.5,-8.5 -119,-17 q-59.5,-8.5 -100,-14.5 q-40.5,-6 -40.5,-6 q0,0 -0.5,4 q-0.5,4 -2,12.5 q-1.5,8.5 -3.5,21.5 q-2,13 -3.5,22 q-1.5,9 -2,13.5 q-0.5,4.5 -0.5,4.5 q0,0 41.5,6 q41.5,6 103,15 q61.5,9 123,18 q61.5,9 103,15 q41.5,6 41.5,6 q0,0 0,9.5 q0,9.5 0,19 q0,9.5 0,9.5 h38 v-146 Z" fill="url(#gradient_0)" transform="matrix(0.125,0,0,-0.125,659,112)"/>
  <path d="M228,-278 q0,0 0,0 q0,0 0,0 q0,0 0,0 q0,0 0,0 q0,0 0,0 q0,0 0,0 q0,0 0,0 q0,0 0,0 q0,0 0,0 q0,0 0,0 q0,0 0,0 q0,0 0,0 q0,0 0,0 q0,0 0,0 q0,0 0,0 q0,0 0,0 q0,0 0,0 q0,0 0,0 q0,0 0,0 q0,0 0,0 q0,0 0,0 q0,0 0,0 q0,0 0,0 q0,0 0,0 q0,0 0,0 q0,0 0,0 q0,0 0,0 q0,0 0,0 q0,0 0,0 q0,0 0,0 q0,0 -40.5,0 q-40.5,0 -93.5,0 q-53,0 -93.5,0 q-40.5,0 -40.5,0 q0,0 0,0 q0,0 0,0 q0,0 0,0 q0,0 0,0 q0,0 0,0 q0,0 0,0 q0,0 0,0 q0,0 0,0 q0,0 0,12.5 q0,12.5 0,31.5 q0,19 0,40.5 q0,21.5 0,40.5 q0,19 0,31 q0,12 0,12 q0,0 0,0 q0,0 0,0 q0,0 0,0 q0,0 0,0 v134 q0,0 0,0 q0,0 0,0 q0,0 0,0 q0,0 0,0 q0,0 38.5,0 q38.5,0 99,0 q60.5,0 128.5,0 q68,0 128.5,0 q60.5,0 99,0 q38.5,0 38.5,0 q0,0 0,0 q0,0 0,0 q0,0 0,0 q0,0 0,0 q0,0 0,0 q0,0 0,0 q0,0 38.5,0 q38.5,0 99,0 q60.5,0 128.5,0 q68,0 128.5,0 q60.5,0 99,0 q38.5,0 38.5,0 q0,0 0,0 q0,0 0,0 q0,0 0,0 q0,0 0,0 q0,0 0,-20 q0,-20 0,-46.5 q0,-26.5 0,-47 q0,-20.5 0,-20.5 q0,0 0,0 q0,0 0,0 q0,0 0,0 q0,0 0,0 q0,0 -43,-9 q-43,-9 -114,-24 q-71,-15 -156,-33 q-85,-18 -170,-36 q-85,-18 -156,-33 q-71,-15 -114,-24 q-43,-9 -43,-9 q0,0 0,0 q0,0 0,0 q0,0 0,0 q0,0 0,0 q0,0 0,0 q0,0 0,0 q0,0 0,0 q0,0 0,0 q0,0 0,0 q0,0 0,0 q0,0 0,0 q0,0 0,0 q0,0 0,0 q0,0 0,0 q0,0 0,0 Z M228,-278 q0,0 0,0 q0,0 0,0 q0,0 0,0 q0,0 0,0 q0,0 0,0 q0,0 0,0 q0,0 0,0 q0,0 0,0 q0,0 0,0 q0,0 0,0 q0,0 0,0 q0,0 0,0 q0,0 0,0 q0,0 0,0 q0,0 0,0 q0,0 0,0 q0,0 0,0 q0,0 0,0 q0,0 0,0 q0,0 0,0 q0,0 0,0 q0,0 0,0 q0,0 0,0 q0,0 0,0 q0,0 0,0 q0,0 0,0 q0,0 0,0 q0,0 0,0 q0,0 0,0 q0,0 0,0 q0,0 -40.5,0 q-40.5,0 -93.5,0 q-53,0 -93.5,0 q-40.5,0 -40.5,0 q0,0 0,0 q0,0 0,0 q0,0 0,0 q0,0 0,0 q0,0 0,0 q0,0 0,0 q0,0 0,0 q0,0 0,0 q0,0 0,12.5 q0,12.5 0,31.5 q0,19 0,40.5 q0,21.5 0,40.5 q0,19 0,31 q0,12 0,12 q0,0 0,0 q0,0 0,0 q0,0 0,0 q0,0 0,0 v134 q0,0 0,0 q0,0 0,0 q0,0 0,0 q0,0 0,0 q0,0 38.5,0 q38.5,0 99,0 q60.5,0 128.5,0 q68,0 128.5,0 q60.5,0 99,0 q38.5,0 38.5,0 q0,0 0,0 q0,0 0,0 q0,0 0,0 q0,0 0,0 q0,0 0,0 q0,0 0,0 q0,0 38.5,0 q38.5,0 99,0 q60.5,0 128.5,0 q68,0 128.5,0 q60.5,0 99,0 q38.5,0 38.5,0 q0,0 0,0 q0,0 0,0 q0,0 0,0 q0,0 0,0 q0,0 0,-20 q0,-20 0,-46.5 q0,-26.5 0,-47 q0,-20.5 0,-20.5 q0,0 0,0 q0,0 0,0 q0,0 0,0 q0,0 0,0 q0,0 -43,-9 q-43,-9 -114,-24 q-71,-15 -156,-33 q-85,-18 -170,-36 q-85,-18 -156,-33 q-71,-15 -114,-24 q-43,-9 -43,-9 q0,0 0,0 q0,0 0,0 q0,0 0,0 q0,0 0,0 q0,0 0,0 q0,0 0,0 q0,0 0,0 q0,0 0,0 q0,0 0,0 q0,0 0,0 q0,0 0,0 q0,0 0,0 q0,0 0,0 q0,0 0,0 q0,0 0,0 Z" fill="url(#gradient_0)" transform="matrix(0.125,0,0,-0.125,782,112)"/>
  <path d="M-6,938 h228 h268 h268 h228 v-898 h-228 h-264 h-272 h-228 v898 Z" fill="url(#gradient_1)" transform="matrix(0.125,0,0,-0.125,782,112)"/>
  <path d="M532,0 q0,0 0,0 q0,0 0,0 q0,0 0,0 q0,0 0,0 q0,0 0,0 q0,0 0,0 q-4,0 -47,0 q-43,0 -108,0 q-65,0 -137,0 q-72,0 -136,0 q-64,0 -104,0 q-40,0 -40,0 q0,0 0,0 q0,0 0,0 q0,0 0,0 v516 h80 v-436 q0,0 0,0 q0,0 0,0 q0,0 0,0 q0,0 35,0 q35,0 81,0 q46,0 81,0 q35,0 35,0 q0,0 0,0 q0,0 0,0 q0,0 0,0 q0,0 0,0 q0,0 0,0 q0,0 35,0 q35,0 81,0 q46,0 81,0 q35,0 35,0 q0,0 0,0 q0,0 0,0 q0,0 0,5 q0,5 0,30 q0,25 0,83 q0,58 0,164 q0,0 0,0 q0,0 0,0 q0,0 0,0 q0,0 0,0 q0,0 0,0 q0,0 44.5,0 q44.5,0 110,0 q65.5,0 131,0 q65.5,0 110,0 q44.5,0 44.5,0 q0,0 0,0 q0,0 0,0 q0,0 0,0 q0,0 0,0 q0,0 0,0 q0,0 0,32 q0,32 0,79 q0,47 0,94 q0,47 0,79 q0,32 0,32 q0,0 0,0 q0,0 0,0 q0,0 0,0 q0,0 0,0 q0,0 0,0 h80 v-678 q0,0 -34.5,0 q-34.5,0 -89.5,0 q-55,0 -117.5,0 q-62.5,0 -118.5,0 q-56,0 -92.5,0 q-36.5,0 -39.5,0 q0,0 0,0 q0,0 0,0 q0,0 0,0 q0,0 0,0 Z M-40,470 q0,0 0,36 q0,36 0,92.5 q0,56.5 0,120.5 q0,64 0,120.5 q0,56.5 0,92.5 q0,36 0,36 q0,0 0,0 q0,0 0,0 q0,0 0,0 q0,0 39.5,0 q39.5,0 102.5,0 q63,0 133,0 q70,0 133,0 q63,0 102.5,0 q39.5,0 39.5,0 q0,0 0,0 q0,0 0,0 q0,0 0,0 q0,0 0,0 q0,0 0,0 q0,0 0,0 q0,0 0,0 q0,0 0,0 q0,0 0,0 q0,-11 0,-38 q0,-27 0,-62 q0,-35 0,-72 q0,-37 0,-69.5 q0,-32.5 0,-52.5 q0,0 -16.5,32.5 q-16.5,32.5 -37.5,74.5 q-21,42 -37.5,74.5 q-16.5,32.5 -16.5,32.5 q0,0 -36.5,0 q-36.5,0 -90.5,0 q-54,0 -108,0 q-54,0 -90.5,0 q-36.5,0 -36.5,0 q0,0 0,0 q0,0 0,0 q0,0 0,0 q0,0 0,0 q0,0 0,0 q0,0 0,0 q0,0 0,0 q0,0 0,0 q0,0 0,0 q0,0 0,0 q0,0 0,0 q0,0 0,-42 q0,-42 0,-104.5 q0,-62.5 0,-125 q0,-62.5 0,-104.5 q0,-42 0,-42 h-80 Z M1024,566 h-80 q0,0 0,0 q0,0 0,0 q0,0 0,0 q0,0 0,0 q0,0 0,3 q0,3 0,17.5 q0,14.5 0,48.5 q0,34 0,95 q0,61 0,158 q0,0 0,0 q0,0 0,0 q0,0 0,0 q0,0 0,0 q0,0 -23.5,0 q-23.5,0 -60,0 q-36.5,0 -77.5,0 q-41,0 -77.5,0 q-36.5,0 -60,0 q-23.5,0 -23.5,0 q0,0 -17,-32.5 q-17,-32.5 -39,-74.5 q-22,-42 -39,-74.5 q-17,-32.5 -17,-32.5 q0,0 0,0 q0,0 0,0 q0,0 0,0 q0,0 -4.5,32.5 q-4.5,32.5 -10,74.5 q-5.5,42 -10,74.5 q-4.5,32.5 -4.5,32.5 q0,0 0,8 q0,8 0,20 q0,12 0,24 q0,12 0,20 q0,8 0,8 q0,0 0,0 q0,0 0,0 q0,0 0,0 q0,0 0,0 q0,0 39,0 q39,0 101,0 q62,0 131.5,0 q69.5,0 131.5,0 q62,0 101,0 q39,0 39,0 q0,0 0,0 q0,0 0,0 q0,0 0,0 q0,0 0,0 q0,0 0,0 q0,0 0,0 q0,0 0,0 q0,0 0,0 q0,0 0,0 q0,0 0,0 q0,0 0,0 q0,0 0,0 q0,0 0,-29 q0,-29 0,-75 q0,-46 0,-97 q0,-51 0,-97 q0,-46 0,-75 q0,-29 0,-29 Z" fill="url(#gradient_0)" transform="matrix(0.125,0,0,-0.125,782,112)"/>
  <path d="" fill="url(#gradient_0)" transform="matrix(0.125,0,0,-0.125,905,112)"/>
  <path d="" fill="url(#gradient_1)" transform="matrix(0.125,0,0,-0.125,905,112)"/>
  <path d="" fill="url(#gradient_0)" transform="matrix(0.125,0,0,-0.125,905,112)"/>
  <path d="M246,-278 q0,0 0,0 q0,0 0,0 q0,0 0,0 q0,0 0,0 q0,0 0,0 q0,0 0,0 q0,0 0,0 q0,0 0,0 q0,0 0,0 q0,0 0,0 q0,0 0,0 q0,0 0,0 q0,0 0,0 q0,0 0,0 q0,0 0,0 q0,0 0,0 q0,0 0,0 q0,0 0,0 q0,0 0,0 q0,0 0,0 q0,0 0,0 q0,0 0,0 q0,0 0,0 q0,0 0,0 q0,0 0,0 q0,0 0,0 q0,0 0,0 q0,0 0,0 q0,0 -29,0 q-29,0 -71.5,0 q-42.5,0 -85,0 q-42.5,0 -71.5,0 q-29,0 -29,0 q0,0 0,0 q0,0 0,0 q0,0 0,0 q0,0 0,0 q0,0 0,0 q0,0 0,0 q0,0 0,0 q0,0 0,0 q0,0 0,0 q0,0 0,12.5 q0,12.5 0,31.5 q0,19 0,40.5 q0,21.5 0,40.5 q0,19 0,31 q0,12 0,12 q0,0 0,0 q0,0 0,0 v134 q0,0 0,0 q0,0 0,0 q0,0 0,0 q0,0 0,0 q0,0 41,0 q41,0 106,0 q65,0 138,0 q73,0 138,0 q65,0 106,0 q41,0 41,0 q0,0 0,0 q0,0 0,0 q0,0 0,0 q0,0 0,0 q0,0 0,0 q0,0 41,0 q41,0 106,0 q65,0 138,0 q73,0 138,0 q65,0 106,0 q41,0 41,0 q0,0 0,0 q0,0 0,0 q0,0 0,0 q0,0 0,0 q0,0 0,-20 q0,-20 0,-46.5 q0,-26.5 0,-47 q0,-20.5 0,-20.5 q0,0 0,0 q0,0 0,0 q0,0 -23,-9 q-23,-9 -61,-24 q-38,-15 -83.5,-33 q-45.5,-18 -91,-36 q-45.5,-18 -83.5,-33 q-38,-15 -61.5,-24 q-23.5,-9 -23.5,-9 q0,0 0,0 q0,0 0,0 q0,0 0,0 q0,0 0,0 q0,0 0,0 q0,0 0,0 q0,0 -23,0 q-23,0 -61,0 q-38,0 -83.5,0 q-45.5,0 -91,0 q-45.5,0 -83.5,0 q-38,0 -61.5,0 q-23.5,0 -23.5,0 q0,0 0,0 q0,0 0,0 q0,0 0,0 q0,0 0,0 q0,0 0,0 q0,0 0,0 q0,0 0,0 q0,0 0,0 q0,0 0,0 Z M246,-278 q0,0 0,0 q0,0 0,0 q0,0 0,0 q0,0 0,0 q0,0 0,0 q0,0 0,0 q0,0 0,0 q0,0 0,0 q0,0 0,0 q0,0 0,0 q0,0 0,0 q0,0 0,0 q0,0 0,0 q0,0 0,0 q0,0 0,0 q0,0 0,0 q0,0 0,0 q0,0 0,0 q0,0 0,0 q0,0 0,0 q0,0 0,0 q0,0 0,0 q0,0 0,0 q0,0 0,0 q0,0 0,0 q0,0 0,0 q0,0 0,0 q0,0 0,0 q0,0 -29,0 q-29,0 -71.5,0 q-42.5,0 -85,0 q-42.5,0 -71.5,0 q-29,0 -29,0 q0,0 0,0 q0,0 0,0 q0,0 0,0 q0,0 0,0 q0,0 0,0 q0,0 0,0 q0,0 0,0 q0,0 0,0 q0,0 0,0 q0,0 0,12.5 q0,12.5 0,31.5 q0,19 0,40.5 q0,21.5 0,40.5 q0,19 0,31 q0,12 0,12 q0,0 0,0 q0,0 0,0 v134 q0,0 0,0 q0,0 0,0 q0,0 0,0 q0,0 0,0 q0,0 41,0 q41,0 106,0 q65,0 138,0 q73,0 138,0 q65,0 106,0 q41,0 41,0 q0,0 0,0 q0,0 0,0 q0,0 0,0 q0,0 0,0 q0,0 0,0 q0,0 41,0 q41,0 106,0 q65,0 138,0 q73,0 138,0 q65,0 106,0 q41,0 41,0 q0,0 0,0 q0,0 0,0 q0,0 0,0 q0,0 0,0 q0,0 0,-20 q0,-20 0,-46.5 q0,-26.5 0,-47 q0,-20.5 0,-20.5 q0,0 0,0 q0,0 0,0 q0,0 -23,-9 q-23,-9 -61,-24 q-38,-15 -83.5,-33 q-45.5,-18 -91,-36 q-45.5,-18 -83.5,-33 q-38,-15 -61.5,-24 q-23.5,-9 -23.5,-9 q0,0 0,0 q0,0 0,0 q0,0 0,0 q0,0 0,0 q0,0 0,0 q0,0 0,0 q0,0 -23,0 q-23,0 -61,0 q-38,0 -83.5,0 q-45.5,0 -91,0 q-45.5,0 -83.5,0 q-38,0 -61.5,0 q-23.5,0 -23.5,0 q0,0 0,0 q0,0 0,0 q0,0 0,0 q0,0 0,0 q0,0 0,0 q0,0 0,0 q0,0 0,0 q0,0 0,0 q0,0 0,0 Z" fill="url(#gradient_0)" transform="matrix(0.125,0,0,-0.125,975,112)"/>
  <path d="M-6,1138 h244 h288 h288 h244 v-1098 h-244 h-284 h-292 h-244 v1098 Z" fill="url(#gradient_1)" transform="matrix(0.125,0,0,-0.125,975,112)"/>
  <path d="M-40,376 v420 h80 q0,0 0,-31.5 q0,-31.5 0,-73.5 q0,-42 0,-73.5 q0,-31.5 0,-31.5 q0,0 0,0 q0,0 0,0 q0,0 0,0 q0,0 0,0 q0,0 0,-31.5 q0,-31.5 0,-73.5 q0,-42 0,-73.5 q0,-31.5 0,-31.5 h-80 Z M1100,488 h-80 q0,0 0,31.5 q0,31.5 0,73.5 q0,42 0,73.5 q0,31.5 0,31.5 q0,0 0,0 q0,0 0,0 q0,0 0,0 q0,0 0,0 q0,0 0,31.5 q0,31.5 0,73.5 q0,42 0,73.5 q0,31.5 0,31.5 h80 v-420 Z M-40,580 h80 v-500 q0,0 0,0 q0,0 0,0 q0,0 35.5,0 q35.5,0 81.5,0 q46,0 81.5,0 q35.5,0 35.5,0 q0,0 32.5,0 q32.5,0 75.5,0 q43,0 75.5,0 q32.5,0 32.5,0 q0,0 0,0 q0,0 0,0 v202 q0,0 0,0 q0,0 0,0 q0,0 0,0 q0,0 0,0 q0,0 22,0 q22,0 58.5,0 q36.5,0 79,0 q42.5,0 84,0 q41.5,0 75,0 q33.5,0 49.5,0 q0,0 0,0 q0,0 0,0 q0,0 0,0 q4,0 21.5,15 q17.5,15 41,38 q23.5,23 46.5,46.5 q23,23.5 38,40.5 q15,17 15,20 q0,0 0,0 q0,0 0,0 v156 h80 v-598 q0,0 -30.5,0 q-30.5,0 -81,0 q-50.5,0 -110.5,0 q-60,0 -120,0 q-60,0 -110.5,0 q-50.5,0 -81,0 q-30.5,0 -30.5,0 q0,0 0,0 q0,0 0,0 q0,0 0,0 q0,0 0,0 q0,0 0,0 q0,0 0,0 q0,0 0,0 q0,0 0,0 q0,0 0,0 q0,0 0,0 q0,0 0,0 q0,0 0,0 q0,0 0,0 q0,0 0,0 q0,0 0,0 q0,0 0,0 q0,0 0,0 q0,0 0,0 q0,0 0,0 q0,0 0,0 q0,0 0,0 q0,0 0,0 q0,0 0,0 q0,0 0,0 q0,0 0,0 q0,0 0,0 q0,0 0,0 q0,0 0,0 q0,0 0,0 q0,0 -41.5,0 q-41.5,0 -107,0 q-65.5,0 -139.5,0 q-74,0 -139.5,0 q-65.5,0 -107,0 q-41.5,0 -41.5,0 v580 Z M-40,614 q0,0 0,40.5 q0,40.5 0,104 q0,63.5 0,134.5 q0,71 0,134.5 q0,63.5 0,104 q0,40.5 0,40.5 q0,0 0,0 q0,0 0,0 q0,0 0,0 q0,0 0,0 q0,0 42,0 q42,0 108.5,0 q66.5,0 141.5,0 q75,0 141.5,0 q66.5,0 108.5,0 q42,0 42,0 q0,0 0,0 q0,0 0,0 q0,0 0,0 q0,0 0,0 q0,0 0,0 q0,-19 0,-39.5 q0,-20.5 0,-40.5 q0,0 -36.5,0 q-36.5,0 -94,0 q-57.5,0 -121.5,0 q-64,0 -121.5,0 q-57.5,0 -94,0 q-36.5,0 -36.5,0 q0,0 0,0 q0,0 0,0 q0,0 0,0 q0,0 0,0 q0,0 0,0 q0,0 0,0 q0,0 0,0 q0,0 0,0 q0,0 0,0 q0,0 0,0 q0,0 0,0 q0,0 0,0 q0,0 0,0 q0,0 0,-34.5 q0,-34.5 0,-89 q0,-54.5 0,-115.5 q0,-61 0,-115.5 q0,-54.5 0,-89 q0,-34.5 0,-34.5 h-80 Z M1100,614 h-80 v318 q0,3 -15.5,20 q-15.5,17 -38.5,40.5 q-23,23.5 -47,46.5 q-24,23 -41,38 q-17,15 -20,15 q0,0 0,0 q0,0 0,0 q0,0 0,0 q0,0 -34.5,0 q-34.5,0 -85.5,0 q-51,0 -102,0 q-51,0 -85.5,0 q-34.5,0 -34.5,0 q0,20 0,40.5 q0,20.5 0,39.5 q0,0 0,0 q0,0 0,0 q0,0 0,0 q0,0 0,0 q0,0 0,0 q7,0 52,0 q45,0 111.5,0 q66.5,0 139,0 q72.5,0 136.5,0 q64,0 104.5,0 q40.5,0 40.5,0 q0,0 0,0 q0,0 0,0 q0,0 0,0 q0,0 0,0 q0,0 0,-40.5 q0,-40.5 0,-104 q0,-63.5 0,-134.5 q0,-71 0,-134.5 q0,-63.5 0,-104 q0,-40.5 0,-40.5 Z M486,572 q0,0 0,37.5 q0,37.5 0,86.5 q0,49 0,86.5 q0,37.5 0,37.5 q0,0 0,0 q0,0 0,0 q0,6 1,7 q1,1 7,1 q11,0 21.5,0 q10.5,0 21,0 q10.5,0 21.5,0 q6,0 7,-1 q1,-1 1,-7 q0,0 0,0 q0,0 0,0 q0,0 0,-37.5 q0,-37.5 0,-86.5 q0,-49 0,-86.5 q0,-37.5 0,-37.5 q0,0 0,0 q0,0 0,0 q0,0 0,0 q0,0 0,0 q0,0 0,0 q0,0 0,0 q0,0 0,0 q0,-6 -1,-7 q-1,-1 -7,-1 q-16,0 -31.5,0 q-15.5,0 -32.5,0 q-6,0 -7,1 q-1,1 -1,7 q0,0 0,0 q0,0 0,0 q0,0 0,0 q0,0 0,0 q0,0 0,0 q0,0 0,0 q0,0 0,0 Z" fill="url(#gradient_0)" transform="matrix(0.125,0,0,-0.125,975,112)"/>
  <path d="M130,-279 q0,0 0,0 q0,0 0,0 q0,0 0,0 q0,0 0,0 q0,0 0,0 q0,0 0,0 q0,0 0,0 q0,0 0,0 q0,0 0,0 q0,0 0,0 q0,0 0,0 q0,0 0,0 q0,0 0,0 q0,0 0,0 q0,0 0,0 q0,0 0,0 q0,0 0,0 q0,0 0,0 q0,0 0,0 q0,0 0,0 q0,0 -25.5,0 q-25.5,0 -59.5,0 q-34,0 -59.5,0 q-25.5,0 -25.5,0 q0,0 0,0 q0,0 0,0 q0,0 0,0 q0,0 0,0 q0,0 0,0 q0,0 0,0 q0,0 0,0 q0,0 0,0 q0,0 0,0 q0,0 0,17 q0,17 0,42 q0,25 0,50 q0,25 0,42 q0,17 0,17 v137 q0,0 0,0 q0,0 0,0 q0,0 0,0 q0,0 30,0 q30,0 74,0 q44,0 88,0 q44,0 74,0 q30,0 30,0 q0,0 0,0 q0,0 0,0 q0,0 0,0 q0,0 0,0 q0,0 33,0 q33,0 81.5,0 q48.5,0 97,0 q48.5,0 81.5,0 q33,0 33,0 q0,0 0,0 q0,0 0,0 q0,0 0,0 q0,0 0,-13.5 q0,-13.5 0,-34 q0,-20.5 0,-40.5 q0,-20 0,-34 q0,-14 0,-14 q0,0 -32.5,-12 q-32.5,-12 -84,-31.5 q-51.5,-19.5 -109.5,-41 q-58,-21.5 -109.5,-40.5 q-51.5,-19 -84,-31.5 q-32.5,-12.5 -32.5,-12.5 q0,0 0,0 q0,0 0,0 q0,0 0,0 q0,0 0,0 q0,0 0,0 q0,0 0,0 q0,0 0,0 q0,0 0,0 q0,0 0,0 q0,0 0,0 Z M130,-279 q0,0 0,0 q0,0 0,0 q0,0 0,0 q0,0 0,0 q0,0 0,0 q0,0 0,0 q0,0 0,0 q0,0 0,0 q0,0 0,0 q0,0 0,0 q0,0 0,0 q0,0 0,0 q0,0 0,0 q0,0 0,0 q0,0 0,0 q0,0 0,0 q0,0 0,0 q0,0 0,0 q0,0 0,0 q0,0 0,0 q0,0 -25.5,0 q-25.5,0 -59.5,0 q-34,0 -59.5,0 q-25.5,0 -25.5,0 q0,0 0,0 q0,0 0,0 q0,0 0,0 q0,0 0,0 q0,0 0,0 q0,0 0,0 q0,0 0,0 q0,0 0,0 q0,0 0,0 q0,0 0,17 q0,17 0,42 q0,25 0,50 q0,25 0,42 q0,17 0,17 v137 q0,0 0,0 q0,0 0,0 q0,0 0,0 q0,0 30,0 q30,0 74,0 q44,0 88,0 q44,0 74,0 q30,0 30,0 q0,0 0,0 q0,0 0,0 q0,0 0,0 q0,0 0,0 q0,0 33,0 q33,0 81.5,0 q48.5,0 97,0 q48.5,0 81.5,0 q33,0 33,0 q0,0 0,0 q0,0 0,0 q0,0 0,0 q0,0 0,-13.5 q0,-13.5 0,-34 q0,-20.5 0,-40.5 q0,-20 0,-34 q0,-14 0,-14 q0,0 -32.5,-12 q-32.5,-12 -84,-31.5 q-51.5,-19.5 -109.5,-41 q-58,-21.5 -109.5,-40.5 q-51.5,-19 -84,-31.5 q-32.5,-12.5 -32.5,-12.5 q0,0 0,0 q0,0 0,0 q0,0 0,0 q0,0 0,0 q0,0 0,0 q0,0 0,0 q0,0 0,0 q0,0 0,0 q0,0 0,0 q0,0 0,0 Z" fill="url(#gradient_0)" transform="matrix(0.125,0,0,-0.125,1107.5,112)"/>
  <path d="M-6,1138 h280 h272 l4,-1098 h-276 h-280 v1098 Z" fill="url(#gradient_1)" transform="matrix(0.125,0,0,-0.125,1107.5,112)"/>
  <path d="M582,498 q0,-41 0,-89.5 q0,-48.5 0,-101 q0,-52.5 0,-106 q0,-53.5 0,-104.5 q0,-51 0,-97 q0,0 -31.5,0 q-31.5,0 -78,0 q-46.5,0 -93,0 q-46.5,0 -78,0 q-31.5,0 -31.5,0 q0,0 0,0 q0,0 0,0 q0,0 0,0 q0,0 0,0 q-7,15 -7,40 q0,25 7,40 q21,0 47,0 q26,0 55.5,0 q29.5,0 62.5,0 q33,0 67,0 q0,0 0,0 q0,0 0,0 q0,0 0,0 q0,0 0,0 q0,0 0,0 q0,0 0,0 q0,0 0,0 q0,0 0,0 q0,0 0,42 q0,42 0,104.5 q0,62.5 0,125 q0,62.5 0,104.5 q0,42 0,42 h80 Z M-40,498 h80 q0,0 0,-42 q0,-42 0,-104.5 q0,-62.5 0,-125 q0,-62.5 0,-104.5 q0,-42 0,-42 q0,0 0,0 q0,0 0,0 q0,0 0,0 q0,0 0,0 q0,0 0,0 q0,0 0,0 q0,0 0,0 q0,0 0,0 q35,0 67.5,0 q32.5,0 62,0 q29.5,0 55.5,0 q26,0 47,0 q8,-15 8,-40 q0,-25 -8,-40 q0,0 0,0 q0,0 0,0 q0,0 0,0 q0,0 0,0 q0,0 -31.5,0 q-31.5,0 -78,0 q-46.5,0 -93,0 q-46.5,0 -78,0 q-31.5,0 -31.5,0 q0,46 0,97 q0,51 0,104.5 q0,53.5 0,106 q0,52.5 0,101 q0,48.5 0,89.5 Z M-40,716 h80 q0,-55 0,-88 q0,-33 0,-63.5 q0,-30.5 0,-78.5 q0,0 0,0 q0,0 0,0 q0,0 0,0 q0,0 0,0 q0,-50 0,-76 q0,-26 0,-43.5 q0,-17.5 0,-41 q0,-23.5 0,-69.5 h-80 v460 Z M582,716 v-460 h-80 q0,46 0,69.5 q0,23.5 0,41 q0,17.5 0,43.5 q0,26 0,76 q0,0 0,0 q0,0 0,0 q0,0 0,0 q0,0 0,0 q0,48 0,78.5 q0,30.5 0,63.5 q0,33 0,88 h80 Z M582,674 h-80 q0,0 0,42 q0,42 0,104.5 q0,62.5 0,125 q0,62.5 0,104.5 q0,42 0,42 q0,0 0,0 q0,0 0,0 q0,0 0,0 q0,0 0,0 q0,0 0,0 q0,0 0,0 q0,0 0,0 q0,0 0,0 q-34,0 -67,0 q-33,0 -62.5,0 q-29.5,0 -55.5,0 q-26,0 -47,0 q-7,15 -7,40 q0,25 7,40 q0,0 0,0 q0,0 0,0 q0,0 0,0 q0,0 0,0 q0,0 31.5,0 q31.5,0 78,0 q46.5,0 93,0 q46.5,0 78,0 q31.5,0 31.5,0 q0,-46 0,-97 q0,-51 0,-104.5 q0,-53.5 0,-106 q0,-52.5 0,-101 q0,-48.5 0,-89.5 Z M-40,674 q0,41 0,89.5 q0,48.5 0,101 q0,52.5 0,106 q0,53.5 0,104.5 q0,51 0,97 q0,0 31.5,0 q31.5,0 78,0 q46.5,0 93,0 q46.5,0 78,0 q31.5,0 31.5,0 q0,0 0,0 q0,0 0,0 q0,0 0,0 q0,0 0,0 q8,-15 8,-40 q0,-25 -8,-40 q-21,0 -47,0 q-26,0 -55.5,0 q-29.5,0 -62,0 q-32.5,0 -67.5,0 q0,0 0,0 q0,0 0,0 q0,0 0,0 q0,0 0,0 q0,0 0,0 q0,0 0,0 q0,0 0,0 q0,0 0,0 q0,0 0,-42 q0,-42 0,-104.5 q0,-62.5 0,-125 q0,-62.5 0,-104.5 q0,-42 0,-42 h-80 Z M582,614 h-80 q0,30 0,61.5 q0,31.5 0,58.5 q0,27 0,43.5 q0,16.5 0,16.5 q0,0 0,0 q0,0 0,0 q0,0 0,3 q0,3 0,12.5 q0,9.5 0,30 q0,20.5 0,54.5 q0,0 0,0 q0,0 0,0 q0,0 -34.5,0 q-34.5,0 -80.5,0 q-46,0 -80.5,0 q-34.5,0 -34.5,0 q0,0 0,11.5 q0,11.5 0,26.5 q0,15 0,26.5 q0,11.5 0,11.5 q14,0 31,0 q17,0 42.5,0 q25.5,0 61.5,0 q36,0 87,0 q7,0 21,0 q14,0 27,0 q13,0 18,0 q4,0 7.5,0 q3.5,0 7,0 q3.5,0 7.5,0 q0,-31 0,-79 q0,-48 0,-101 q0,-53 0,-100 q0,-47 0,-76 Z M-40,614 q0,29 0,76 q0,47 0,100 q0,53 0,101 q0,48 0,79 q4,0 7.5,0 q3.5,0 7,0 q3.5,0 7.5,0 q5,0 18,0 q13,0 27,0 q14,0 21,0 q34,0 61.5,0 q27.5,0 49,0 q21.5,0 39,0 q17.5,0 31,0 q13.5,0 24,0 q10.5,0 19.5,0 q0,0 0,-11.5 q0,-11.5 0,-26.5 q0,-15 0,-26.5 q0,-11.5 0,-11.5 q0,0 -23.5,0 q-23.5,0 -58,0 q-34.5,0 -69,0 q-34.5,0 -58,0 q-23.5,0 -23.5,0 q0,0 0,0 q0,0 0,0 q0,-34 0,-54.5 q0,-20.5 0,-30 q0,-9.5 0,-12.5 q0,-3 0,-3 q0,0 0,0 q0,0 0,0 q0,0 0,-16.5 q0,-16.5 0,-43.5 q0,-27 0,-58.5 q0,-31.5 0,-61.5 h-80 Z" fill="url(#gradient_0)" transform="matrix(0.125,0,0,-0.125,1107.5,112)"/>
  <path d="M228,-278 q0,0 0,0 q0,0 0,0 q0,0 0,0 q0,0 0,0 q0,0 0,0 q0,0 0,0 q0,0 0,0 q0,0 0,0 q0,0 0,0 q0,0 0,0 q0,0 0,0 q0,0 0,0 q0,0 0,0 q0,0 0,0 q0,0 0,0 q0,0 0,0 q0,0 0,0 q0,0 0,0 q0,0 0,0 q0,0 0,0 q0,0 0,0 q0,0 0,0 q0,0 0,0 q0,0 0,0 q0,0 0,0 q0,0 0,0 q0,0 0,0 q0,0 0,0 q0,0 0,0 q0,0 0,0 q0,0 -40.5,0 q-40.5,0 -93.5,0 q-53,0 -93.5,0 q-40.5,0 -40.5,0 q0,0 0,0 q0,0 0,0 q0,0 0,0 q0,0 0,0 q0,0 0,0 q0,0 0,0 q0,0 0,0 q0,0 0,0 q0,0 0,12.5 q0,12.5 0,31.5 q0,19 0,40.5 q0,21.5 0,40.5 q0,19 0,31 q0,12 0,12 q0,0 0,0 q0,0 0,0 v134 q0,0 0,0 q0,0 0,0 q0,0 0,0 q0,0 0,0 q0,0 38.5,0 q38.5,0 99,0 q60.5,0 128.5,0 q68,0 128.5,0 q60.5,0 99,0 q38.5,0 38.5,0 q0,0 0,0 q0,0 0,0 q0,0 0,0 q0,0 0,0 q0,0 0,0 q0,0 0,0 q0,0 38.5,0 q38.5,0 99,0 q60.5,0 128.5,0 q68,0 128.5,0 q60.5,0 99,0 q38.5,0 38.5,0 q0,0 0,0 q0,0 0,0 q0,0 0,0 q0,0 0,0 q0,0 0,-20 q0,-20 0,-46.5 q0,-26.5 0,-47 q0,-20.5 0,-20.5 q0,0 0,0 q0,0 0,0 q0,0 -43,-9 q-43,-9 -114,-24 q-71,-15 -156,-33 q-85,-18 -170,-36 q-85,-18 -156,-33 q-71,-15 -114,-24 q-43,-9 -43,-9 q0,0 0,0 q0,0 0,0 q0,0 0,0 q0,0 0,0 q0,0 0,0 q0,0 0,0 q0,0 0,0 q0,0 0,0 q0,0 0,0 q0,0 0,0 q0,0 0,0 q0,0 0,0 q0,0 0,0 q0,0 0,0 q0,0 0,0 Z M228,-278 q0,0 0,0 q0,0 0,0 q0,0 0,0 q0,0 0,0 q0,0 0,0 q0,0 0,0 q0,0 0,0 q0,0 0,0 q0,0 0,0 q0,0 0,0 q0,0 0,0 q0,0 0,0 q0,0 0,0 q0,0 0,0 q0,0 0,0 q0,0 0,0 q0,0 0,0 q0,0 0,0 q0,0 0,0 q0,0 0,0 q0,0 0,0 q0,0 0,0 q0,0 0,0 q0,0 0,0 q0,0 0,0 q0,0 0,0 q0,0 0,0 q0,0 0,0 q0,0 0,0 q0,0 0,0 q0,0 -40.5,0 q-40.5,0 -93.5,0 q-53,0 -93.5,0 q-40.5,0 -40.5,0 q0,0 0,0 q0,0 0,0 q0,0 0,0 q0,0 0,0 q0,0 0,0 q0,0 0,0 q0,0 0,0 q0,0 0,0 q0,0 0,12.5 q0,12.5 0,31.5 q0,19 0,40.5 q0,21.5 0,40.5 q0,19 0,31 q0,12 0,12 q0,0 0,0 q0,0 0,0 v134 q0,0 0,0 q0,0 0,0 q0,0 0,0 q0,0 0,0 q0,0 38.5,0 q38.5,0 99,0 q60.5,0 128.5,0 q68,0 128.5,0 q60.5,0 99,0 q38.5,0 38.5,0 q0,0 0,0 q0,0 0,0 q0,0 0,0 q0,0 0,0 q0,0 0,0 q0,0 0,0 q0,0 38.5,0 q38.5,0 99,0 q60.5,0 128.5,0 q68,0 128.5,0 q60.5,0 99,0 q38.5,0 38.5,0 q0,0 0,0 q0,0 0,0 q0,0 0,0 q0,0 0,0 q0,0 0,-20 q0,-20 0,-46.5 q0,-26.5 0,-47 q0,-20.5 0,-20.5 q0,0 0,0 q0,0 0,0 q0,0 -43,-9 q-43,-9 -114,-24 q-71,-15 -156,-33 q-85,-18 -170,-36 q-85,-18 -156,-33 q-71,-15 -114,-24 q-43,-9 -43,-9 q0,0 0,0 q0,0 0,0 q0,0 0,0 q0,0 0,0 q0,0 0,0 q0,0 0,0 q0,0 0,0 q0,0 0,0 q0,0 0,0 q0,0 0,0 q0,0 0,0 q0,0 0,0 q0,0 0,0 q0,0 0,0 q0,0 0,0 Z" fill="url(#gradient_0)" transform="matrix(0.125,0,0,-0.125,1175.25,112)"/>
  <path d="M-6,938 h230 h270 h271 h230 v-898 h-230 h-267 h-274 h-230 v898 Z" fill="url(#gradient_1)" transform="matrix(0.125,0,0,-0.125,1175.25,112)"/>
  <path d="M-40,558 h80 v-318 q0,-3 15.5,-20 q15.5,-17 38.5,-40.5 q23,-23.5 47,-46.5 q24,-23 41,-38 q17,-15 20,-15 q0,0 0,0 q0,0 0,0 q0,0 0,0 q0,0 0,0 q12,0 44.5,0 q32.5,0 74,0 q41.5,0 82,0 q40.5,0 68.5,0 q28,0 33,0 q0,-19 0,-39.5 q0,-20.5 0,-40.5 q0,0 0,0 q0,0 0,0 q0,0 0,0 q0,0 0,0 q0,0 0,0 q0,0 -39.5,0 q-39.5,0 -101,0 q-61.5,0 -131.5,0 q-70,0 -131.5,0 q-61.5,0 -101,0 q-39.5,0 -39.5,0 q0,0 0,0 q0,0 0,0 q0,0 0,0 q0,0 0,0 q0,0 0,28 q0,28 0,76 q0,48 0,107 q0,59 0,121.5 q0,62.5 0,121.5 q0,59 0,104 Z M-40,410 q0,46 0,104 q0,58 0,121 q0,63 0,122 q0,59 0,107 q0,48 0,76 q0,28 0,28 q0,0 0,0 q0,0 0,0 q0,0 0,0 q0,0 0,0 q0,0 39.5,0 q39.5,0 101,0 q61.5,0 131.5,0 q70,0 131.5,0 q61.5,0 101,0 q39.5,0 39.5,0 q0,0 0,0 q0,0 0,0 q0,0 0,0 q0,0 0,0 q0,0 0,0 q0,-19 0,-39.5 q0,-20.5 0,-40.5 q-5,0 -33,0 q-28,0 -68.5,0 q-40.5,0 -82,0 q-41.5,0 -74,0 q-32.5,0 -44.5,0 q0,0 0,0 q0,0 0,0 q0,0 0,0 q0,0 0,0 q-3,0 -20,-15 q-17,-15 -41,-38 q-24,-23 -47,-46.5 q-23,-23.5 -38.5,-40.5 q-15.5,-17 -15.5,-20 v-318 h-80 Z M-40,256 v460 h80 q0,-46 0,-69.5 q0,-23.5 0,-41 q0,-17.5 0,-43.5 q0,-26 0,-76 q0,0 0,0 q0,0 0,0 q0,0 0,0 q0,0 0,0 q0,-48 0,-78.5 q0,-30.5 0,-63.5 q0,-33 0,-88 h-80 Z M558,518 q0,4 0.5,5.5 q0.5,1.5 2,2 q1.5,0.5 5.5,0.5 q0,0 41,0 q41,0 102,0 q61,0 122,0 q61,0 102,0 q41,0 41,0 q0,0 0,0 q0,0 0,0 q0,0 0,0 q0,0 0,0 q0,0 0,0 q4,0 5.5,-0.5 q1.5,-0.5 2,-2 q0.5,-1.5 0.5,-5.5 q0,0 0,-6.5 q0,-6.5 0,-16 q0,-9.5 0,-19 q0,-9.5 0,-16 q0,-6.5 0,-6.5 q0,-6 -1,-7 q-1,-1 -7,-1 q0,0 0,0 q0,0 0,0 q0,0 0,0 q0,0 0,0 q0,0 0,0 q0,0 -41,0 q-41,0 -102,0 q-61,0 -122,0 q-61,0 -102,0 q-41,0 -41,0 q-4,0 -5.5,0.5 q-1.5,0.5 -2,2 q-0.5,1.5 -0.5,5.5 q0,0 0,16 q0,16 0,32 q0,16 0,16 Z M1024,498 q0,0 0,-36 q0,-36 0,-92.5 q0,-56.5 0,-120.5 q0,-64 0,-120.5 q0,-56.5 0,-92.5 q0,-36 0,-36 q0,0 0,0 q0,0 0,0 q0,0 0,0 q0,0 0,0 q0,0 -39.5,0 q-39.5,0 -101,0 q-61.5,0 -131.5,0 q-70,0 -131.5,0 q-61.5,0 -101,0 q-39.5,0 -39.5,0 q0,0 0,0 q0,0 0,0 q0,0 0,0 q0,0 0,0 q0,0 0,0 q0,20 0,40.5 q0,20.5 0,39.5 q0,0 47,0 q47,0 116,0 q69,0 138,0 q69,0 116,0 q47,0 47,0 q0,0 0,0 q0,0 0,0 q0,0 0,0 q0,0 0,0 q0,0 0,0 q0,0 0,0 q0,0 0,0 q0,0 0,0 q0,0 0,0 q0,0 0,0 q0,0 0,0 q0,0 0,42 q0,42 0,104.5 q0,62.5 0,125 q0,62.5 0,104.5 q0,42 0,42 h80 Z M1024,470 h-80 q0,0 0,42 q0,42 0,104.5 q0,62.5 0,125 q0,62.5 0,104.5 q0,42 0,42 q0,0 0,0 q0,0 0,0 q0,0 0,0 q0,0 0,0 q0,0 0,0 q0,0 0,0 q0,0 0,0 q0,0 0,0 q0,0 0,0 q0,0 0,0 q0,0 0,0 q0,0 -47,0 q-47,0 -116,0 q-69,0 -138,0 q-69,0 -116,0 q-47,0 -47,0 q0,20 0,40.5 q0,20.5 0,39.5 q0,0 0,0 q0,0 0,0 q0,0 0,0 q0,0 0,0 q0,0 0,0 q0,0 39.5,0 q39.5,0 101,0 q61.5,0 131.5,0 q70,0 131.5,0 q61.5,0 101,0 q39.5,0 39.5,0 q0,0 0,0 q0,0 0,0 q0,0 0,0 q0,0 0,0 q0,0 0,-36 q0,-36 0,-92.5 q0,-56.5 0,-120.5 q0,-64 0,-120.5 q0,-56.5 0,-92.5 q0,-36 0,-36 Z" fill="url(#gradient_0)" transform="matrix(0.125,0,0,-0.125,1175.25,112)"/>
  <path d="M246,-278 q0,0 0,0 q0,0 0,0 q0,0 0,0 q0,0 0,0 q0,0 0,0 q0,0 0,0 q0,0 0,0 q0,0 0,0 q0,0 0,0 q0,0 0,0 q0,0 0,0 q0,0 0,0 q0,0 0,0 q0,0 0,0 q0,0 0,0 q0,0 0,0 q0,0 0,0 q0,0 0,0 q0,0 0,0 q0,0 0,0 q0,0 0,0 q0,0 0,0 q0,0 0,0 q0,0 0,0 q0,0 0,0 q0,0 0,0 q0,0 0,0 q0,0 0,0 q0,0 -29,0 q-29,0 -71.5,0 q-42.5,0 -85,0 q-42.5,0 -71.5,0 q-29,0 -29,0 q0,0 0,0 q0,0 0,0 q0,0 0,0 q0,0 0,0 q0,0 0,0 q0,0 0,0 q0,0 0,0 q0,0 0,0 q0,0 0,0 q0,0 0,12.5 q0,12.5 0,31.5 q0,19 0,40.5 q0,21.5 0,40.5 q0,19 0,31 q0,12 0,12 q0,0 0,0 q0,0 0,0 v134 q0,0 0,0 q0,0 0,0 q0,0 0,0 q0,0 0,0 q0,0 41,0 q41,0 106,0 q65,0 138,0 q73,0 138,0 q65,0 106,0 q41,0 41,0 q0,0 0,0 q0,0 0,0 q0,0 0,0 q0,0 0,0 q0,0 0,0 q0,0 0,0 q0,0 41,0 q41,0 106,0 q65,0 138,0 q73,0 138,0 q65,0 106,0 q41,0 41,0 q0,0 0,0 q0,0 0,0 q0,0 0,0 q0,0 0,0 q0,0 0,-20 q0,-20 0,-46.5 q0,-26.5 0,-47 q0,-20.5 0,-20.5 q0,0 0,0 q0,0 0,0 q0,0 0,0 q0,0 0,0 q0,0 -23,-9 q-23,-9 -61,-24 q-38,-15 -83.5,-33 q-45.5,-18 -91,-36 q-45.5,-18 -83.5,-33 q-38,-15 -61.5,-24 q-23.5,-9 -23.5,-9 q0,0 0,0 q0,0 0,0 q0,0 0,0 q0,0 0,0 q0,0 0,0 q0,0 0,0 q0,0 -23,0 q-23,0 -61,0 q-38,0 -83.5,0 q-45.5,0 -91,0 q-45.5,0 -83.5,0 q-38,0 -61.5,0 q-23.5,0 -23.5,0 q0,0 0,0 q0,0 0,0 q0,0 0,0 q0,0 0,0 q0,0 0,0 q0,0 0,0 q0,0 0,0 q0,0 0,0 q0,0 0,0 q0,0 0,0 q0,0 0,0 Z M246,-278 q0,0 0,0 q0,0 0,0 q0,0 0,0 q0,0 0,0 q0,0 0,0 q0,0 0,0 q0,0 0,0 q0,0 0,0 q0,0 0,0 q0,0 0,0 q0,0 0,0 q0,0 0,0 q0,0 0,0 q0,0 0,0 q0,0 0,0 q0,0 0,0 q0,0 0,0 q0,0 0,0 q0,0 0,0 q0,0 0,0 q0,0 0,0 q0,0 0,0 q0,0 0,0 q0,0 0,0 q0,0 0,0 q0,0 0,0 q0,0 0,0 q0,0 0,0 q0,0 -29,0 q-29,0 -71.5,0 q-42.5,0 -85,0 q-42.5,0 -71.5,0 q-29,0 -29,0 q0,0 0,0 q0,0 0,0 q0,0 0,0 q0,0 0,0 q0,0 0,0 q0,0 0,0 q0,0 0,0 q0,0 0,0 q0,0 0,0 q0,0 0,12.5 q0,12.5 0,31.5 q0,19 0,40.5 q0,21.5 0,40.5 q0,19 0,31 q0,12 0,12 q0,0 0,0 q0,0 0,0 v134 q0,0 0,0 q0,0 0,0 q0,0 0,0 q0,0 0,0 q0,0 41,0 q41,0 106,0 q65,0 138,0 q73,0 138,0 q65,0 106,0 q41,0 41,0 q0,0 0,0 q0,0 0,0 q0,0 0,0 q0,0 0,0 q0,0 0,0 q0,0 0,0 q0,0 41,0 q41,0 106,0 q65,0 138,0 q73,0 138,0 q65,0 106,0 q41,0 41,0 q0,0 0,0 q0,0 0,0 q0,0 0,0 q0,0 0,0 q0,0 0,-20 q0,-20 0,-46.5 q0,-26.5 0,-47 q0,-20.5 0,-20.5 q0,0 0,0 q0,0 0,0 q0,0 0,0 q0,0 0,0 q0,0 -23,-9 q-23,-9 -61,-24 q-38,-15 -83.5,-33 q-45.5,-18 -91,-36 q-45.5,-18 -83.5,-33 q-38,-15 -61.5,-24 q-23.5,-9 -23.5,-9 q0,0 0,0 q0,0 0,0 q0,0 0,0 q0,0 0,0 q0,0 0,0 q0,0 0,0 q0,0 -23,0 q-23,0 -61,0 q-38,0 -83.5,0 q-45.5,0 -91,0 q-45.5,0 -83.5,0 q-38,0 -61.5,0 q-23.5,0 -23.5,0 q0,0 0,0 q0,0 0,0 q0,0 0,0 q0,0 0,0 q0,0 0,0 q0,0 0,0 q0,0 0,0 q0,0 0,0 q0,0 0,0 q0,0 0,0 q0,0 0,0 Z" fill="url(#gradient_0)" transform="matrix(0.125,0,0,-0.125,1298.25,112)"/>
  <path d="M-6,1138 h244 h288 v-210 h288 h244 v-888 h-244 h-146 h-138 h-292 h-244 v1098 Z" fill="url(#gradient_1)" transform="matrix(0.125,0,0,-0.125,1298.25,112)"/>
  <path d="M490,426 q0,0 6,0 q6,0 15,0 q9,0 19,0 q11,0 20.5,0 q9.5,0 15.5,0 q6,0 6,0 q0,-16 0,-55.5 q0,-39.5 0,-88.5 q0,-49 0,-95.5 q0,-46.5 0,-76.5 q0,-30 0,-30 q0,0 0,0 q0,0 0,0 q0,0 0,0 q0,0 32.5,0 q32.5,0 83.5,0 q51,0 108,0 q57,0 108,0 q51,0 83.5,0 q32.5,0 32.5,0 q0,0 0,0 q0,0 0,0 q0,0 0,0 q0,0 0,31.5 q0,31.5 0,68 q0,36.5 0,50.5 q0,11 0,21.5 q0,10.5 0,26 q0,15.5 0,39.5 q0,24 0,61 q0,0 0,0 q0,0 0,0 q0,0 0,0 q0,0 0,21 q0,21 0,49 q0,28 0,49 q0,21 0,21 h80 q0,-49 0,-108.5 q0,-59.5 0,-126 q0,-66.5 0,-138 q0,-71.5 0,-145.5 q0,0 0,0 q0,0 0,0 q0,0 0,0 q0,0 0,0 q0,0 0,0 q0,0 0,0 q0,0 0,0 q0,0 0,0 q0,0 -43,0 q-43,0 -111,0 q-68,0 -145,0 q-77,0 -146.5,0 q-69.5,0 -115,0 q-45.5,0 -49.5,0 q0,0 0,0 q0,0 0,0 q0,0 0,0 q0,0 0,0 q0,0 0,0 q0,0 0,0 q0,0 0,0 q0,0 0,12 q0,12 0,28 q0,16 0,28 q0,12 0,12 q0,0 0,0 q0,0 0,0 q0,0 0,0 q0,40 0,79.5 q0,39.5 0,77 q0,37.5 0,71.5 q0,34 0,64 q0,30 0,54 Z M-40,558 h80 q0,0 0,-34.5 q0,-34.5 0,-89 q0,-54.5 0,-115.5 q0,-61 0,-115.5 q0,-54.5 0,-89 q0,-34.5 0,-34.5 q0,0 0,0 q0,0 0,0 q0,0 0,0 q0,0 0,0 q0,0 0,0 q0,0 0,0 q0,0 0,0 q0,0 0,0 q0,0 0,0 q0,0 0,0 q0,0 0,0 q0,0 0,0 q0,0 0,0 q0,0 36.5,0 q36.5,0 94,0 q57.5,0 121.5,0 q64,0 121.5,0 q57.5,0 94,0 q36.5,0 36.5,0 q0,-19 0,-39.5 q0,-20.5 0,-40.5 q0,0 0,0 q0,0 0,0 q0,0 0,0 q0,0 0,0 q0,0 0,0 q0,0 -42,0 q-42,0 -108.5,0 q-66.5,0 -141.5,0 q-75,0 -141.5,0 q-66.5,0 -108.5,0 q-42,0 -42,0 q0,0 0,0 q0,0 0,0 q0,0 0,0 q0,0 0,0 q0,0 0,40.5 q0,40.5 0,104 q0,63.5 0,134.5 q0,71 0,134.5 q0,63.5 0,104 q0,40.5 0,40.5 Z M-40,576 v596 q0,0 31,0 q31,0 77.5,0 q46.5,0 93.5,0 q47,0 80,0 q33,0 36,0 q0,0 0,0 q0,0 0,0 q0,0 0,0 q0,0 0,0 q0,0 0,0 q0,0 0,0 q0,0 0,0 q0,0 0,0 q0,0 0,0 q0,0 0,0 q3,0 33,0 q30,0 73.5,0 q43.5,0 86,0 q42.5,0 71,0 q28.5,0 28.5,0 v-204 q42,0 84,0 q42,0 84,0 q42,0 84,0 q0,0 28,0 q28,0 69.5,0 q41.5,0 83,0 q41.5,0 69.5,0 q28,0 28,0 q0,0 0,0 q0,0 0,0 q0,0 0,0 q0,0 0,0 v-394 h-80 v314 q0,0 0,0 q0,0 0,0 q0,0 0,0 q0,0 0,0 q0,0 0,0 q0,0 0,0 q0,0 0,0 q0,0 -32.5,0 q-32.5,0 -83.5,0 q-51,0 -108.5,0 q-57.5,0 -109,0 q-51.5,0 -84,0 q-32.5,0 -32.5,0 q0,0 0,0 q0,0 0,0 q0,0 0,0 q0,0 0,-25.5 q0,-25.5 0,-63.5 q0,-38 0,-76 q0,-38 0,-63.5 q0,-25.5 0,-25.5 q0,0 -20,0 q-20,0 -20,0 q0,0 -20,0 q-20,0 -20,0 q0,0 0,46.5 q0,46.5 0,114.5 q0,68 0,136 q0,68 0,114.5 q0,46.5 0,46.5 v0 q0,0 0,0 q0,0 0,0 q0,0 -32,0 q-32,0 -74,0 q-42,0 -74,0 q-32,0 -32,0 q0,0 -36,0 q-36,0 -83,0 q-47,0 -83,0 q-36,0 -36,0 q0,0 0,0 q0,0 0,0 v-516 h-80 Z M880,504 q0,0 0,0 q0,0 0,0 q0,0 21,17 q21,17 49,40 q28,23 49,40 q21,17 21,17 v100 h38 h42 q0,0 0,-43 q0,-43 0,-107 q0,-64 0,-128 q0,-64 0,-107 q0,-43 0,-43 h-42 h-38 v100 q0,0 -21,17 q-21,17 -49,40 q-28,23 -49,40 q-21,17 -21,17 q0,0 0,0 q0,0 0,0 Z M-40,716 h80 q0,-55 0,-88 q0,-33 0,-63.5 q0,-30.5 0,-78.5 q0,0 0,0 q0,0 0,0 q0,0 0,0 q0,0 0,0 q0,-50 0,-76 q0,-26 0,-43.5 q0,-17.5 0,-41 q0,-23.5 0,-69.5 h-80 v460 Z" fill="url(#gradient_0)" transform="matrix(0.125,0,0,-0.125,1298.25,112)"/>
  <path d="M228,-278 q0,0 0,0 q0,0 0,0 q0,0 0,0 q0,0 0,0 q0,0 0,0 q0,0 0,0 q0,0 0,0 q0,0 0,0 q0,0 0,0 q0,0 0,0 q0,0 0,0 q0,0 0,0 q0,0 0,0 q0,0 0,0 q0,0 0,0 q0,0 0,0 q0,0 0,0 q0,0 0,0 q0,0 0,0 q0,0 0,0 q0,0 0,0 q0,0 0,0 q0,0 0,0 q0,0 0,0 q0,0 0,0 q0,0 0,0 q0,0 0,0 q0,0 0,0 q0,0 0,0 q0,0 0,0 q0,0 -40.5,0 q-40.5,0 -93.5,0 q-53,0 -93.5,0 q-40.5,0 -40.5,0 q0,0 0,0 q0,0 0,0 q0,0 0,0 q0,0 0,0 q0,0 0,0 q0,0 0,0 q0,0 0,0 q0,0 0,0 q0,0 0,12.5 q0,12.5 0,31.5 q0,19 0,40.5 q0,21.5 0,40.5 q0,19 0,31 q0,12 0,12 q0,0 0,0 q0,0 0,0 v134 q0,0 0,0 q0,0 0,0 q0,0 0,0 q0,0 0,0 q0,0 38.5,0 q38.5,0 99,0 q60.5,0 128.5,0 q68,0 128.5,0 q60.5,0 99,0 q38.5,0 38.5,0 q0,0 0,0 q0,0 0,0 q0,0 0,0 q0,0 0,0 q0,0 0,0 q0,0 0,0 q0,0 38.5,0 q38.5,0 99,0 q60.5,0 128.5,0 q68,0 128.5,0 q60.5,0 99,0 q38.5,0 38.5,0 q0,0 0,0 q0,0 0,0 q0,0 0,0 q0,0 0,0 q0,0 0,-20 q0,-20 0,-46.5 q0,-26.5 0,-47 q0,-20.5 0,-20.5 q0,0 0,0 q0,0 0,0 q0,0 -43,-9 q-43,-9 -114,-24 q-71,-15 -156,-33 q-85,-18 -170,-36 q-85,-18 -156,-33 q-71,-15 -114,-24 q-43,-9 -43,-9 q0,0 0,0 q0,0 0,0 q0,0 0,0 q0,0 0,0 q0,0 0,0 q0,0 0,0 q0,0 0,0 q0,0 0,0 q0,0 0,0 q0,0 0,0 q0,0 0,0 q0,0 0,0 q0,0 0,0 q0,0 0,0 q0,0 0,0 Z M228,-278 q0,0 0,0 q0,0 0,0 q0,0 0,0 q0,0 0,0 q0,0 0,0 q0,0 0,0 q0,0 0,0 q0,0 0,0 q0,0 0,0 q0,0 0,0 q0,0 0,0 q0,0 0,0 q0,0 0,0 q0,0 0,0 q0,0 0,0 q0,0 0,0 q0,0 0,0 q0,0 0,0 q0,0 0,0 q0,0 0,0 q0,0 0,0 q0,0 0,0 q0,0 0,0 q0,0 0,0 q0,0 0,0 q0,0 0,0 q0,0 0,0 q0,0 0,0 q0,0 0,0 q0,0 0,0 q0,0 -40.5,0 q-40.5,0 -93.5,0 q-53,0 -93.5,0 q-40.5,0 -40.5,0 q0,0 0,0 q0,0 0,0 q0,0 0,0 q0,0 0,0 q0,0 0,0 q0,0 0,0 q0,0 0,0 q0,0 0,0 q0,0 0,12.5 q0,12.5 0,31.5 q0,19 0,40.5 q0,21.5 0,40.5 q0,19 0,31 q0,12 0,12 q0,0 0,0 q0,0 0,0 v134 q0,0 0,0 q0,0 0,0 q0,0 0,0 q0,0 0,0 q0,0 38.5,0 q38.5,0 99,0 q60.5,0 128.5,0 q68,0 128.5,0 q60.5,0 99,0 q38.5,0 38.5,0 q0,0 0,0 q0,0 0,0 q0,0 0,0 q0,0 0,0 q0,0 0,0 q0,0 0,0 q0,0 38.5,0 q38.5,0 99,0 q60.5,0 128.5,0 q68,0 128.5,0 q60.5,0 99,0 q38.5,0 38.5,0 q0,0 0,0 q0,0 0,0 q0,0 0,0 q0,0 0,0 q0,0 0,-20 q0,-20 0,-46.5 q0,-26.5 0,-47 q0,-20.5 0,-20.5 q0,0 0,0 q0,0 0,0 q0,0 -43,-9 q-43,-9 -114,-24 q-71,-15 -156,-33 q-85,-18 -170,-36 q-85,-18 -156,-33 q-71,-15 -114,-24 q-43,-9 -43,-9 q0,0 0,0 q0,0 0,0 q0,0 0,0 q0,0 0,0 q0,0 0,0 q0,0 0,0 q0,0 0,0 q0,0 0,0 q0,0 0,0 q0,0 0,0 q0,0 0,0 q0,0 0,0 q0,0 0,0 q0,0 0,0 q0,0 0,0 Z" fill="url(#gradient_0)" transform="matrix(0.125,0,0,-0.125,1430.75,112)"/>
  <path d="M-6,938 h230 h270 h271 h230 v-898 h-230 h-267 h-274 h-230 v898 Z" fill="url(#gradient_1)" transform="matrix(0.125,0,0,-0.125,1430.75,112)"/>
  <path d="M1024,558 q0,-45 0,-104 q0,-59 0,-121.5 q0,-62.5 0,-121.5 q0,-59 0,-107 q0,-48 0,-76 q0,-28 0,-28 q0,0 0,0 q0,0 0,0 q0,0 0,0 q0,0 0,0 q0,0 -39.5,0 q-39.5,0 -101,0 q-61.5,0 -131.5,0 q-70,0 -131.5,0 q-61.5,0 -101,0 q-39.5,0 -39.5,0 q0,0 0,0 q0,0 0,0 q0,0 0,0 q0,0 0,0 q0,0 0,0 q0,20 0,40.5 q0,20.5 0,39.5 q5,0 33,0 q28,0 68.5,0 q40.5,0 82,0 q41.5,0 74,0 q32.5,0 44.5,0 q0,0 0,0 q0,0 0,0 q0,0 0,0 q0,0 0,0 q3,0 20,15 q17,15 41,38 q24,23 47,46.5 q23,23.5 38.5,40.5 q15.5,17 15.5,20 v318 h80 Z M-40,410 q0,46 0,104 q0,58 0,121 q0,63 0,122 q0,59 0,107 q0,48 0,76 q0,28 0,28 q0,0 0,0 q0,0 0,0 q0,0 0,0 q0,0 0,0 q0,0 39.5,0 q39.5,0 101,0 q61.5,0 131.5,0 q70,0 131.5,0 q61.5,0 101,0 q39.5,0 39.5,0 q0,0 0,0 q0,0 0,0 q0,0 0,0 q0,0 0,0 q0,0 0,0 q0,-19 0,-39.5 q0,-20.5 0,-40.5 q-5,0 -33,0 q-28,0 -68.5,0 q-40.5,0 -82,0 q-41.5,0 -74,0 q-32.5,0 -44.5,0 q0,0 0,0 q0,0 0,0 q0,0 0,0 q0,0 0,0 q-3,0 -20,-15 q-17,-15 -41,-38 q-24,-23 -47,-46.5 q-23,-23.5 -38.5,-40.5 q-15.5,-17 -15.5,-20 v-318 h-80 Z M1024,470 h-80 q0,0 0,42 q0,42 0,104.5 q0,62.5 0,125 q0,62.5 0,104.5 q0,42 0,42 q0,0 0,0 q0,0 0,0 q0,0 0,0 q0,0 0,0 q0,0 0,0 q0,0 0,0 q0,0 0,0 q0,0 0,0 q0,0 0,0 q0,0 0,0 q0,0 0,0 q0,0 -47,0 q-47,0 -116,0 q-69,0 -138,0 q-69,0 -116,0 q-47,0 -47,0 q0,20 0,40.5 q0,20.5 0,39.5 q0,0 0,0 q0,0 0,0 q0,0 0,0 q0,0 0,0 q0,0 0,0 q0,0 39.5,0 q39.5,0 101,0 q61.5,0 131.5,0 q70,0 131.5,0 q61.5,0 101,0 q39.5,0 39.5,0 q0,0 0,0 q0,0 0,0 q0,0 0,0 q0,0 0,0 q0,0 0,-36 q0,-36 0,-92.5 q0,-56.5 0,-120.5 q0,-64 0,-120.5 q0,-56.5 0,-92.5 q0,-36 0,-36 Z M-40,498 h80 q0,0 0,-42 q0,-42 0,-104.5 q0,-62.5 0,-125 q0,-62.5 0,-104.5 q0,-42 0,-42 q0,0 0,0 q0,0 0,0 q0,0 0,0 q0,0 0,0 q0,0 0,0 q0,0 0,0 q0,0 0,0 q0,0 0,0 q0,0 0,0 q0,0 0,0 q0,0 0,0 q0,0 47,0 q47,0 116,0 q69,0 138,0 q69,0 116,0 q47,0 47,0 q0,-19 0,-39.5 q0,-20.5 0,-40.5 q0,0 0,0 q0,0 0,0 q0,0 0,0 q0,0 0,0 q0,0 0,0 q0,0 -39.5,0 q-39.5,0 -101,0 q-61.5,0 -131.5,0 q-70,0 -131.5,0 q-61.5,0 -101,0 q-39.5,0 -39.5,0 q0,0 0,0 q0,0 0,0 q0,0 0,0 q0,0 0,0 q0,0 0,36 q0,36 0,92.5 q0,56.5 0,120.5 q0,64 0,120.5 q0,56.5 0,92.5 q0,36 0,36 Z M0,340 v146 h38 q0,0 0,-9.5 q0,-9.5 0,-19 q0,-9.5 0,-9.5 q0,0 41.5,-6 q41.5,-6 103,-15 q61.5,-9 123,-18 q61.5,-9 103,-15 q41.5,-6 41.5,-6 q0,0 -0.5,-4.5 q-0.5,-4.5 -2,-13.5 q-1.5,-9 -3.5,-22 q-2,-13 -3.5,-21.5 q-1.5,-8.5 -2,-12.5 q-0.5,-4 -0.5,-4 q0,0 -40.5,6 q-40.5,6 -100,14.5 q-59.5,8.5 -119,17 q-59.5,8.5 -100,14.5 q-40.5,6 -40.5,6 q0,0 0,-7 q0,-7 0,-14 q0,-7 0,-7 h-38 Z M986,610 v-146 h-38 q0,0 0,9.5 q0,9.5 0,19 q0,9.5 0,9.5 q0,0 -41.5,6 q-41.5,6 -103,15 q-61.5,9 -123,18 q-61.5,9 -103,15 q-41.5,6 -41.5,6 q0,0 0.5,4.5 q0.5,4.5 2,13.5 q1.5,9 3.5,22 q2,13 3.5,21.5 q1.5,8.5 2,12.5 q0.5,4 0.5,4 q0,0 40.5,-6 q40.5,-6 100,-14.5 q59.5,-8.5 119,-17 q59.5,-8.5 100,-14.5 q40.5,-6 40.5,-6 q0,0 0,7 q0,7 0,14 q0,7 0,7 h38 Z" fill="url(#gradient_0)" transform="matrix(0.125,0,0,-0.125,1430.75,112)"/>
</svg>
